<?xml version="1.0" encoding="UTF-8"?>
<svg id="Layer_1" data-name="Layer 1" xmlns="http://www.w3.org/2000/svg" xmlns:xlink="http://www.w3.org/1999/xlink" version="1.1" viewBox="0 0 158 26.82">
  <defs>
    <style>
      .cls-1 {
        fill: #f06e24;
      }

      .cls-1, .cls-2, .cls-3, .cls-4, .cls-5, .cls-6, .cls-7, .cls-8, .cls-9, .cls-10, .cls-11, .cls-12, .cls-13, .cls-14, .cls-15, .cls-16, .cls-17, .cls-18, .cls-19, .cls-20, .cls-21, .cls-22, .cls-23, .cls-24, .cls-25, .cls-26, .cls-27, .cls-28, .cls-29, .cls-30, .cls-31, .cls-32, .cls-33, .cls-34, .cls-35, .cls-36, .cls-37, .cls-38, .cls-39, .cls-40, .cls-41, .cls-42, .cls-43, .cls-44, .cls-45, .cls-46, .cls-47, .cls-48, .cls-49, .cls-50, .cls-51, .cls-52, .cls-53, .cls-54, .cls-55, .cls-56, .cls-57, .cls-58, .cls-59, .cls-60, .cls-61, .cls-62, .cls-63, .cls-64, .cls-65, .cls-66, .cls-67, .cls-68, .cls-69, .cls-70, .cls-71, .cls-72, .cls-73, .cls-74, .cls-75, .cls-76, .cls-77, .cls-78, .cls-79, .cls-80, .cls-81, .cls-82, .cls-83, .cls-84, .cls-85, .cls-86, .cls-87, .cls-88, .cls-89, .cls-90, .cls-91, .cls-92, .cls-93, .cls-94, .cls-95, .cls-96, .cls-97, .cls-98, .cls-99, .cls-100, .cls-101, .cls-102, .cls-103, .cls-104, .cls-105, .cls-106, .cls-107, .cls-108, .cls-109, .cls-110, .cls-111, .cls-112, .cls-113, .cls-114, .cls-115, .cls-116, .cls-117, .cls-118, .cls-119, .cls-120, .cls-121, .cls-122, .cls-123, .cls-124, .cls-125, .cls-126, .cls-127, .cls-128, .cls-129, .cls-130, .cls-131, .cls-132, .cls-133, .cls-134, .cls-135, .cls-136, .cls-137, .cls-138, .cls-139, .cls-140, .cls-141, .cls-142, .cls-143, .cls-144, .cls-145, .cls-146, .cls-147, .cls-148, .cls-149, .cls-150, .cls-151, .cls-152, .cls-153, .cls-154, .cls-155, .cls-156, .cls-157, .cls-158, .cls-159, .cls-160, .cls-161, .cls-162, .cls-163, .cls-164, .cls-165, .cls-166, .cls-167, .cls-168, .cls-169, .cls-170, .cls-171, .cls-172, .cls-173, .cls-174, .cls-175, .cls-176, .cls-177, .cls-178, .cls-179, .cls-180, .cls-181, .cls-182, .cls-183, .cls-184, .cls-185, .cls-186, .cls-187, .cls-188, .cls-189, .cls-190, .cls-191, .cls-192, .cls-193, .cls-194, .cls-195, .cls-196, .cls-197, .cls-198, .cls-199, .cls-200, .cls-201, .cls-202, .cls-203, .cls-204, .cls-205, .cls-206, .cls-207, .cls-208, .cls-209, .cls-210, .cls-211, .cls-212, .cls-213, .cls-214, .cls-215, .cls-216, .cls-217, .cls-218, .cls-219, .cls-220, .cls-221, .cls-222, .cls-223, .cls-224, .cls-225, .cls-226, .cls-227, .cls-228, .cls-229, .cls-230, .cls-231, .cls-232, .cls-233, .cls-234, .cls-235, .cls-236, .cls-237, .cls-238, .cls-239, .cls-240, .cls-241, .cls-242, .cls-243, .cls-244, .cls-245, .cls-246, .cls-247, .cls-248, .cls-249, .cls-250, .cls-251, .cls-252, .cls-253, .cls-254, .cls-255, .cls-256, .cls-257, .cls-258, .cls-259, .cls-260, .cls-261, .cls-262, .cls-263, .cls-264, .cls-265, .cls-266, .cls-267, .cls-268, .cls-269, .cls-270, .cls-271, .cls-272, .cls-273, .cls-274, .cls-275, .cls-276, .cls-277, .cls-278, .cls-279, .cls-280, .cls-281, .cls-282, .cls-283, .cls-284 {
        stroke-width: 0px;
      }

      .cls-2 {
        fill: #faf1d0;
      }

      .cls-3 {
        fill: #f7e196;
      }

      .cls-4 {
        fill: #fcf6e5;
      }

      .cls-5 {
        fill: #f4d56e;
      }

      .cls-6 {
        fill: #f7e093;
      }

      .cls-7 {
        fill: #f2b22b;
      }

      .cls-8 {
        fill: #f9e8b2;
      }

      .cls-9 {
        fill: #f48f1f;
      }

      .cls-10 {
        fill: #f7e194;
      }

      .cls-11 {
        fill: #f6e29b;
      }

      .cls-12 {
        fill: #f5d876;
      }

      .cls-13 {
        fill: #fbf4dc;
      }

      .cls-14 {
        fill: #fcf7e9;
      }

      .cls-15 {
        fill: #fbf5e0;
      }

      .cls-16 {
        fill: #ee5d27;
      }

      .cls-17 {
        fill: #fcf8eb;
      }

      .cls-18 {
        fill: #f5d97b;
      }

      .cls-19 {
        fill: #f8e5a7;
      }

      .cls-20 {
        fill: #f27c23;
      }

      .cls-21 {
        fill: #ee5f26;
      }

      .cls-22 {
        fill: #f4d261;
      }

      .cls-23 {
        fill: #f3a929;
      }

      .cls-24 {
        fill: #fffffc;
      }

      .cls-25 {
        fill: #f5d366;
      }

      .cls-26 {
        fill: #f7e39c;
      }

      .cls-27 {
        fill: #f3a728;
      }

      .cls-28 {
        fill: #f49321;
      }

      .cls-29 {
        fill: #f2b02c;
      }

      .cls-30 {
        fill: #faeabb;
      }

      .cls-285 {
        clip-path: url(#clippath);
      }

      .cls-31 {
        fill: #f49521;
      }

      .cls-32 {
        fill: #f8e6ab;
      }

      .cls-33 {
        fill: none;
      }

      .cls-34 {
        fill: #f27922;
      }

      .cls-35 {
        fill: #f5d97c;
      }

      .cls-36 {
        fill: #f9e9b6;
      }

      .cls-37 {
        fill: #f48720;
      }

      .cls-38 {
        fill: #ef6327;
      }

      .cls-39 {
        fill: #fbf9f0;
      }

      .cls-40 {
        fill: #f3d05b;
      }

      .cls-41 {
        fill: #f06826;
      }

      .cls-42 {
        fill: #f3a228;
      }

      .cls-43 {
        fill: #f1c533;
      }

      .cls-44 {
        fill: #fbf4dd;
      }

      .cls-45 {
        fill: #f39c24;
      }

      .cls-46 {
        fill: #fbf2d6;
      }

      .cls-47 {
        fill: #f5d66f;
      }

      .cls-48 {
        fill: #f39d24;
      }

      .cls-49 {
        fill: #f8e4a3;
      }

      .cls-50 {
        fill: #f5d97a;
      }

      .cls-51 {
        fill: #f29b23;
      }

      .cls-52 {
        fill: #f3cc4f;
      }

      .cls-53 {
        fill: #f17823;
      }

      .cls-54 {
        fill: #f28121;
      }

      .cls-55 {
        fill: #f39e25;
      }

      .cls-56 {
        fill: #f6dc86;
      }

      .cls-57 {
        fill: #f6df8e;
      }

      .cls-58 {
        fill: #f5db80;
      }

      .cls-59 {
        fill: #fbf6e2;
      }

      .cls-60 {
        fill: #fbf9ee;
      }

      .cls-61 {
        fill: #f48e1f;
      }

      .cls-62 {
        fill: #f38b1f;
      }

      .cls-63 {
        fill: #f1bd31;
      }

      .cls-64 {
        fill: #f7e39e;
      }

      .cls-65 {
        fill: #f1c332;
      }

      .cls-66 {
        fill: #f4d46b;
      }

      .cls-67 {
        fill: #f1be30;
      }

      .cls-68 {
        fill: #faeec6;
      }

      .cls-69 {
        fill: #f2b92f;
      }

      .cls-70 {
        fill: #f2bc2f;
      }

      .cls-71 {
        fill: #f3cc4d;
      }

      .cls-72 {
        fill: #f4da7d;
      }

      .cls-73 {
        fill: #f8e7af;
      }

      .cls-74 {
        fill: #f1c636;
      }

      .cls-75 {
        fill: #fbf6e3;
      }

      .cls-76 {
        fill: #ef6127;
      }

      .cls-77 {
        fill: #f4d160;
      }

      .cls-78 {
        fill: #f1bf32;
      }

      .cls-79 {
        fill: #f3d05c;
      }

      .cls-80 {
        fill: #f17324;
      }

      .cls-81 {
        fill: #f17723;
      }

      .cls-82 {
        fill: #f8e4a4;
      }

      .cls-83 {
        fill: #f0c131;
      }

      .cls-84 {
        fill: #f6dc84;
      }

      .cls-85 {
        fill: #f4a527;
      }

      .cls-86 {
        fill: #f3c945;
      }

      .cls-87 {
        fill: #f2a427;
      }

      .cls-88 {
        fill: #f6de8a;
      }

      .cls-89 {
        fill: #f27e22;
      }

      .cls-90 {
        fill: #f48d20;
      }

      .cls-91 {
        fill: #f4d46a;
      }

      .cls-92 {
        fill: #f7df91;
      }

      .cls-93 {
        fill: #fbf2d4;
      }

      .cls-94 {
        fill: #f2c840;
      }

      .cls-95 {
        fill: #f3cf57;
      }

      .cls-96 {
        fill: #fcf6e4;
      }

      .cls-97 {
        fill: #f9ecc1;
      }

      .cls-98 {
        fill: #f3a226;
      }

      .cls-99 {
        fill: #faefca;
      }

      .cls-100 {
        fill: #f1c434;
      }

      .cls-101 {
        fill: #fcf3d7;
      }

      .cls-102 {
        fill: #f9ecc0;
      }

      .cls-103 {
        fill: #f2ae2b;
      }

      .cls-104 {
        fill: #f2af2b;
      }

      .cls-105 {
        fill: #f6dd89;
      }

      .cls-106 {
        fill: #f6dd87;
      }

      .cls-107 {
        fill: #f39a23;
      }

      .cls-108 {
        fill: #f2cb49;
      }

      .cls-109 {
        fill: #faf1d2;
      }

      .cls-110 {
        fill: #f17224;
      }

      .cls-111 {
        fill: #faedc2;
      }

      .cls-112 {
        fill: #f17125;
      }

      .cls-113 {
        fill: #fcfaf1;
      }

      .cls-114 {
        fill: #f39924;
      }

      .cls-115 {
        fill: #f4931f;
      }

      .cls-116 {
        fill: #f38820;
      }

      .cls-117 {
        fill: #f3aa29;
      }

      .cls-118 {
        fill: #f7df8f;
      }

      .cls-119 {
        fill: #f3a126;
      }

      .cls-120 {
        fill: #f38521;
      }

      .cls-121 {
        fill: #f4d264;
      }

      .cls-122 {
        fill: #f1ca41;
      }

      .cls-123 {
        fill: #f9e8b1;
      }

      .cls-124 {
        fill: #294c64;
      }

      .cls-125 {
        fill: #faf0cf;
      }

      .cls-126 {
        fill: #f3a628;
      }

      .cls-127 {
        fill: #f28222;
      }

      .cls-128 {
        fill: #f3a82a;
      }

      .cls-129 {
        fill: #faeec7;
      }

      .cls-130 {
        fill: #f49620;
      }

      .cls-131 {
        fill: #fbf5df;
      }

      .cls-132 {
        fill: #ef6526;
      }

      .cls-133 {
        fill: #f4901e;
      }

      .cls-134 {
        fill: #f4da7e;
      }

      .cls-135 {
        fill: #f2b12c;
      }

      .cls-136 {
        fill: #f06d26;
      }

      .cls-137 {
        fill: #ef6427;
      }

      .cls-138 {
        fill: #f48c20;
      }

      .cls-139 {
        fill: #f5d775;
      }

      .cls-140 {
        fill: #f1c635;
      }

      .cls-141 {
        fill: #f27f22;
      }

      .cls-142 {
        fill: #f06925;
      }

      .cls-143 {
        fill: #fbf9ef;
      }

      .cls-144 {
        fill: #ee5a27;
      }

      .cls-145 {
        fill: #f1c73b;
      }

      .cls-146 {
        fill: #faefc9;
      }

      .cls-147 {
        fill: #f1c232;
      }

      .cls-148 {
        fill: #ef6a25;
      }

      .cls-149 {
        fill: #f4911e;
      }

      .cls-150 {
        fill: #f9ecbe;
      }

      .cls-151 {
        fill: #fffcfa;
      }

      .cls-152 {
        fill: #f2cb4b;
      }

      .cls-153 {
        fill: #f9e9b5;
      }

      .cls-154 {
        fill: #f3ce53;
      }

      .cls-155 {
        fill: #f07a24;
      }

      .cls-156 {
        fill: #f5d367;
      }

      .cls-157 {
        fill: #fbf9ed;
      }

      .cls-158 {
        fill: #fbf5e1;
      }

      .cls-159 {
        fill: #f28022;
      }

      .cls-160 {
        fill: #fcf8ec;
      }

      .cls-161 {
        fill: #f1c638;
      }

      .cls-162 {
        fill: #f06c24;
      }

      .cls-163 {
        fill: #f4d56c;
      }

      .cls-164 {
        fill: #f38920;
      }

      .cls-165 {
        fill: #f8e4a1;
      }

      .cls-166 {
        fill: #f2ba30;
      }

      .cls-167 {
        fill: #fcf3d9;
      }

      .cls-168 {
        fill: #f49722;
      }

      .cls-169 {
        fill: #faf0cd;
      }

      .cls-170 {
        fill: #f6de8b;
      }

      .cls-171 {
        fill: #f6dd88;
      }

      .cls-172 {
        fill: #f5d772;
      }

      .cls-173 {
        fill: #f8e6aa;
      }

      .cls-174 {
        fill: #f2c83e;
      }

      .cls-175 {
        fill: #f8e7ac;
      }

      .cls-176 {
        fill: #1c75b9;
      }

      .cls-177 {
        fill: #f8ebb8;
      }

      .cls-178 {
        fill: #faeabc;
      }

      .cls-179 {
        fill: #f37a23;
      }

      .cls-180 {
        fill: #f9e9b3;
      }

      .cls-181 {
        fill: #faeaba;
      }

      .cls-182 {
        fill: #f3c946;
      }

      .cls-183 {
        fill: #f8e4a2;
      }

      .cls-184 {
        fill: #f1c032;
      }

      .cls-185 {
        fill: #faedc4;
      }

      .cls-186 {
        fill: #f8e5a6;
      }

      .cls-187 {
        fill: #f8ebb7;
      }

      .cls-188 {
        fill: #f5d877;
      }

      .cls-189 {
        fill: #f6de8d;
      }

      .cls-190 {
        fill: #fcfaf2;
      }

      .cls-191 {
        fill: #f38222;
      }

      .cls-192 {
        fill: #fcf3db;
      }

      .cls-193 {
        fill: #fcfaf3;
      }

      .cls-194 {
        fill: #f7e198;
      }

      .cls-195 {
        fill: #f3cd51;
      }

      .cls-196 {
        fill: #f2b82f;
      }

      .cls-197 {
        fill: #fffcf9;
      }

      .cls-198 {
        fill: #f2c83d;
      }

      .cls-199 {
        fill: #f3cd50;
      }

      .cls-200 {
        fill: #faeabd;
      }

      .cls-201 {
        fill: #fcf7e7;
      }

      .cls-202 {
        fill: #f2cc4c;
      }

      .cls-203 {
        fill: #f38421;
      }

      .cls-204 {
        fill: #f1b32d;
      }

      .cls-205 {
        fill: #ee5b29;
      }

      .cls-206 {
        fill: #f5d670;
      }

      .cls-207 {
        fill: #f7e3a0;
      }

      .cls-208 {
        fill: #faeec5;
      }

      .cls-209 {
        fill: #fffbf5;
      }

      .cls-210 {
        fill: #f2b72d;
      }

      .cls-211 {
        fill: #143142;
      }

      .cls-212 {
        fill: #f5d878;
      }

      .cls-213 {
        fill: #f4d15f;
      }

      .cls-214 {
        fill: #f8e6a8;
      }

      .cls-215 {
        fill: #f5d671;
      }

      .cls-216 {
        fill: #f7df90;
      }

      .cls-217 {
        fill: #f28021;
      }

      .cls-218 {
        fill: #f5db81;
      }

      .cls-219 {
        fill: #f07023;
      }

      .cls-220 {
        fill: #f17524;
      }

      .cls-221 {
        fill: #fffbf7;
      }

      .cls-222 {
        fill: #ef6028;
      }

      .cls-223 {
        fill: #f6da80;
      }

      .cls-224 {
        fill: #f7e199;
      }

      .cls-225 {
        fill: #f9ecbf;
      }

      .cls-226 {
        fill: #fcf8ea;
      }

      .cls-227 {
        fill: #f49822;
      }

      .cls-228 {
        fill: #f6e29a;
      }

      .cls-229 {
        fill: #f4d469;
      }

      .cls-230 {
        fill: #faf1d1;
      }

      .cls-231 {
        fill: #f9e9b4;
      }

      .cls-232 {
        fill: #fbf1d3;
      }

      .cls-233 {
        fill: #f27d23;
      }

      .cls-234 {
        fill: #fffcfb;
      }

      .cls-235 {
        fill: #f4d262;
      }

      .cls-236 {
        fill: #f1ca43;
      }

      .cls-237 {
        fill: #f5d774;
      }

      .cls-238 {
        fill: #fbf2d5;
      }

      .cls-239 {
        fill: #fcfbf4;
      }

      .cls-240 {
        fill: #f7e092;
      }

      .cls-241 {
        fill: #fcf3d8;
      }

      .cls-242 {
        fill: #faefcc;
      }

      .cls-243 {
        fill: #f2ad29;
      }

      .cls-244 {
        fill: #f17424;
      }

      .cls-245 {
        fill: #f1c535;
      }

      .cls-246 {
        fill: #fcf7e6;
      }

      .cls-247 {
        fill: #faefcb;
      }

      .cls-248 {
        fill: #f2cb47;
      }

      .cls-249 {
        fill: #f3a024;
      }

      .cls-250 {
        fill: #f8e7ad;
      }

      .cls-251 {
        fill: #f3cf59;
      }

      .cls-252 {
        fill: #f3ce55;
      }

      .cls-253 {
        fill: #fff;
      }

      .cls-254 {
        fill: #f2b42e;
      }

      .cls-255 {
        fill: #f1bb30;
      }

      .cls-256 {
        fill: #f8e6a9;
      }

      .cls-257 {
        fill: #f5db7f;
      }

      .cls-258 {
        fill: #f3ac2a;
      }

      .cls-259 {
        fill: #f3ce54;
      }

      .cls-260 {
        fill: #f38320;
      }

      .cls-261 {
        fill: #ee5c28;
      }

      .cls-262 {
        fill: #f1ca40;
      }

      .cls-263 {
        fill: #f4d56f;
      }

      .cls-264 {
        fill: #f07a22;
      }

      .cls-265 {
        fill: #f3cf58;
      }

      .cls-266 {
        fill: #f39f25;
      }

      .cls-267 {
        fill: #fbf4de;
      }

      .cls-268 {
        fill: #ef6227;
      }

      .cls-269 {
        fill: #ef6726;
      }

      .cls-270 {
        fill: #f2b42c;
      }

      .cls-271 {
        fill: #f6dc83;
      }

      .cls-272 {
        fill: #faeec8;
      }

      .cls-273 {
        fill: #f1c73a;
      }

      .cls-274 {
        fill: #f7e39f;
      }

      .cls-275 {
        fill: #f2b62e;
      }

      .cls-276 {
        fill: #ef6b25;
      }

      .cls-277 {
        fill: #f38a1f;
      }

      .cls-278 {
        fill: #f8e8b0;
      }

      .cls-279 {
        fill: #f2c73d;
      }

      .cls-280 {
        fill: #f3d15d;
      }

      .cls-281 {
        fill: #fffcf8;
      }

      .cls-282 {
        fill: #f5d365;
      }

      .cls-283 {
        fill: #f5db82;
      }

      .cls-284 {
        fill: #f39220;
      }
    </style>
    <clipPath id="clippath">
      <path class="cls-33" d="M29.14,13.91c0,.3-.32.49-.58.34l-.47-.27-1.82-1.05-1.47-.84-.74-.42c-.51-.29-1.15-.28-1.64.04-.13.08-.27.17-.4.25l-.84.54-1.03.66c-.27.17-.62.16-.88-.02l-.99-.71-.17-.12s0,0-.01-.01l-.51-.36-.11-.08-.11-.08c-.52-.38-1.22-.43-1.78-.12l-1.66.9c-.37.2-.74.4-1.12.6-.74.39-1.48.79-2.22,1.19-.92.49-1.83.99-2.75,1.48l-.4.22c-.26.14-.57-.05-.57-.34v-7.3c-.01-.1.03-.2.1-.27L13.25,1.81c.07-.07.17-.11.27-.11l8.91-.02c.1,0,.2.04.27.11l6.31,6.28c.07.07.11.17.11.27v5.56Z"/>
    </clipPath>
  </defs>
  <path class="cls-191" d="M89.97,16.58h.02c1.85,0,2.77-.55,2.77-1.64,0-.45-.24-.79-.71-1.03-.35-.18-1.1-.39-2.23-.63-1.24-.26-2.12-.54-2.65-.85-.98-.57-1.48-1.41-1.48-2.53s.5-2.06,1.49-2.68c.77-.48,1.73-.73,2.89-.73.99,0,1.87.19,2.61.56.98.48,1.61,1.46,1.9,2.93l-1.76.29c-.18-.88-.51-1.44-.99-1.66-.49-.23-1.08-.35-1.77-.35-.8,0-1.43.14-1.91.42-.46.27-.69.67-.69,1.21,0,.46.24.82.71,1.06.37.19,1.11.4,2.23.64,1.24.26,2.12.54,2.64.84.99.55,1.48,1.39,1.48,2.5,0,2.27-1.53,3.4-4.59,3.4-.82,0-1.6-.15-2.32-.42-.84-.32-1.67-.98-2.47-2l1.48-1.02c.56.72,1.11,1.17,1.65,1.38.52.19,1.07.28,1.66.29Z"/>
  <path class="cls-191" d="M100.06,8.09c1.1-1.06,2.63-1.6,4.57-1.6h.02c1.95,0,3.48.53,4.58,1.6,1.1,1.06,1.64,2.5,1.64,4.32s-.55,3.26-1.64,4.32c-1.1,1.07-2.63,1.6-4.58,1.6h-.02c-1.94,0-3.46-.53-4.57-1.6-1.09-1.06-1.63-2.5-1.63-4.33s.54-3.27,1.63-4.33ZM101.31,15.47c.76.74,1.88,1.11,3.34,1.11,1.46,0,2.57-.38,3.34-1.11.73-.71,1.1-1.73,1.1-3.06s-.37-2.34-1.1-3.06c-.76-.74-1.87-1.11-3.33-1.11-1.46,0-2.58.37-3.34,1.11-.73.71-1.1,1.73-1.1,3.06s.37,2.35,1.1,3.06Z"/>
  <path class="cls-191" d="M115.43,18.31V6.57h1.79v9.97h6.92v1.77h-8.71Z"/>
  <path class="cls-191" d="M129.1,15.82l-1.09,2.49h-1.96l5.17-11.74h1.26l5.17,11.74h-1.95l-1.1-2.49h-5.49ZM129.88,14.05h3.94l-1.97-4.47-1.98,4.47Z"/>
  <path class="cls-191" d="M147.09,14.17l4.06,4.14h-2.49l-3.76-3.82-.36-.37h-1.65v4.19h-1.78V6.57h4.82c1.21,0,2.18.34,2.89,1.02.7.68,1.05,1.6,1.05,2.75s-.35,2.06-1.05,2.74c-.5.48-1.12.8-1.87.94l.15.15ZM145.92,12.35c.73,0,1.28-.18,1.64-.53.34-.33.52-.82.52-1.48s-.17-1.15-.52-1.48c-.36-.35-.91-.52-1.64-.52h-3.04v4.02h3.04Z"/>
  <g>
    <path class="cls-211" d="M76.96,6.62h-1.5l-5.14,11.69h2.36l1.04-2.39h4.97l1.06,2.39h2.35l-5.14-11.69ZM74.66,13.79l1.55-3.51,1.54,3.51h-3.09Z"/>
    <path class="cls-211" d="M69.87,16.81l-.47.32c-1.21.8-2.71,1.21-4.46,1.21-1.93,0-3.45-.54-4.55-1.6-1.08-1.05-1.63-2.5-1.63-4.3s.55-3.25,1.63-4.31c1.09-1.05,2.61-1.59,4.5-1.59h.05c.81,0,1.59.14,2.3.41.85.32,1.67.99,2.46,2l.15.19-1.79,1.19-.13-.16c-.51-.64-1.01-1.06-1.49-1.23-.47-.17-.98-.27-1.51-.27-1.34,0-2.36.33-3.03.99-.66.64-.99,1.57-.99,2.77s.33,2.13.98,2.77c.68.66,1.71,1,3.04,1,1.21,0,2.14-.19,2.76-.54v-3.68h2.16v4.82Z"/>
    <polygon class="cls-211" points="48.63 6.62 57.43 6.62 57.43 8.76 50.79 8.76 50.79 11.4 57.37 11.4 57.37 13.53 50.79 13.53 50.79 16.18 57.43 16.18 57.43 18.31 48.63 18.31 48.63 6.62"/>
    <polygon class="cls-211" points="45.28 6.62 47.02 6.62 47.02 18.31 44.87 18.31 44.87 11.6 40.93 18.31 39.63 18.31 35.7 11.6 35.7 18.31 33.54 18.31 33.54 6.62 35.28 6.62 40.29 15.15 45.28 6.62"/>
  </g>
  <g>
    <path class="cls-124" d="M25.83,14.61c-.61.49-1.21.96-1.8,1.43-.18.14-.46.15-.67.01-.76-.51-1.51-1.02-2.26-1.51-.28-.19-.28-.55-.01-.73.61-.39,1.24-.79,1.87-1.19.17-.11.41-.12.59-.01l2.2,1.27c.3.17.33.53.08.73Z"/>
    <path class="cls-211" d="M22.54,24.04l-6.41.02c.88-.75,1.79-1.52,2.72-2.31.25-.21.67-.2.97.04.81.64,1.64,1.28,2.46,1.93.12.1.21.21.25.33Z"/>
    <path class="cls-124" d="M29.15,17.32c0,.11-.04.22-.12.3l-1.26,1.26c-.13,0-.25-.04-.36-.12-.76-.51-1.52-1.02-2.27-1.52-.29-.19-.33-.55-.08-.76.58-.49,1.16-.99,1.76-1.49.21-.18.54-.2.79-.06l1.33.77c.13.08.21.22.21.37v1.25Z"/>
    <path class="cls-211" d="M17.78,20.98c-1.27,1.02-2.5,2-3.68,2.95-.02.02-.04.03-.06.05h0c-.16.08-.35.08-.53,0,0,0,0,0,0,0-.07-.03-.15-.08-.21-.14l-2.63-2.43c-.15-.14-.22-.32-.21-.49,0-.14.07-.27.2-.36,1.23-.8,2.51-1.62,3.84-2.47.23-.14.54-.12.77.07.81.64,1.63,1.28,2.46,1.93.32.25.36.67.08.89Z"/>
    <path class="cls-124" d="M13.41,17.47c-1.29.82-2.53,1.61-3.73,2.37-.02.01-.05.02-.07.03-.16.06-.35.01-.49-.12l-1.74-1.63c-.18-.18-.22-.44-.1-.61.02-.05.07-.08.12-.11l3.8-2.09c.17-.09.39-.06.55.06.54.43,1.09.87,1.64,1.31.28.22.28.62.02.78Z"/>
    <path class="cls-124" d="M18.12,14.6c-.91.56-1.79,1.11-2.65,1.65-.22.14-.52.11-.75-.06-.49-.38-.98-.75-1.47-1.13-.35-.27-.33-.77.03-.96l2.78-1.5c.22-.12.51-.1.72.06.44.32.88.63,1.33.95.37.26.37.77,0,.99Z"/>
    <path class="cls-124" d="M22.41,17.34c-.94.75-1.85,1.47-2.74,2.18-.18.14-.45.13-.65-.02-.87-.67-1.73-1.34-2.59-1.99-.25-.19-.26-.53-.01-.69.96-.62,1.95-1.25,2.96-1.9.18-.11.43-.1.61.03.78.56,1.57,1.12,2.37,1.69.26.18.28.52.05.7Z"/>
    <g class="cls-285">
      <rect class="cls-144" x="6.85" y="1.67" width="22.29" height="14.5"/>
      <path class="cls-144" d="M8.6,14.67c-.9-1.16-1.65-2.38-2.27-3.65h.43V1.58h22.47v14.68H10.02v.06c-.49-.52-.97-1.07-1.41-1.65Z"/>
      <path class="cls-205" d="M8.69,14.61c-.89-1.15-1.64-2.37-2.26-3.63h.33V1.58h22.47v14.68H10.47v.37c-.13-.13-.25-.25-.37-.38-.49-.52-.96-1.07-1.41-1.64Z"/>
      <path class="cls-261" d="M8.77,14.54c-.89-1.15-1.64-2.36-2.25-3.61h.24V1.58h22.47v14.68H10.54v.29c-.12-.13-.25-.25-.37-.38-.49-.52-.96-1.06-1.4-1.63Z"/>
      <path class="cls-16" d="M8.86,14.48c-.88-1.14-1.63-2.35-2.24-3.59h.14V1.58h22.47v14.68H11v.59c-.25-.24-.5-.49-.74-.75-.49-.51-.95-1.05-1.39-1.63Z"/>
      <path class="cls-21" d="M8.94,14.41c-.88-1.14-1.62-2.34-2.23-3.58h.04V1.58h22.47v14.68H11.07v.51c-.25-.24-.5-.49-.74-.74-.48-.51-.95-1.05-1.38-1.62Z"/>
      <path class="cls-222" d="M9.03,14.35c-.87-1.13-1.61-2.32-2.22-3.56-.15-.31-.29-.62-.43-.93h.38V1.58h22.47v14.68H11.14v.43c-.25-.24-.5-.49-.74-.74-.48-.51-.94-1.04-1.38-1.61Z"/>
      <path class="cls-222" d="M9.11,14.28c-.87-1.12-1.6-2.31-2.2-3.54-.15-.31-.29-.62-.43-.93h.28V1.58h22.47v14.68H11.22v.35c-.25-.24-.49-.48-.73-.74-.48-.5-.94-1.04-1.37-1.6Z"/>
      <path class="cls-76" d="M9.2,14.22c-.86-1.12-1.59-2.3-2.19-3.52-.3-.61-.57-1.23-.8-1.86h.56V1.58h22.47v14.68H11.29v.28c-.25-.24-.49-.48-.73-.73-.48-.5-.93-1.03-1.36-1.59Z"/>
      <path class="cls-268" d="M9.28,14.15c-.86-1.11-1.59-2.29-2.18-3.5-.3-.61-.56-1.23-.8-1.85h.45V1.58h22.47v14.68H11.37v.2c-.25-.24-.49-.48-.73-.73-.47-.5-.93-1.03-1.36-1.58Z"/>
      <path class="cls-38" d="M9.37,14.08c-.85-1.11-1.58-2.28-2.17-3.48-.3-.6-.56-1.22-.79-1.84h.35V1.58h22.47v14.68H11.44v.12c-.25-.23-.49-.48-.72-.72-.47-.5-.92-1.02-1.35-1.58Z"/>
      <path class="cls-137" d="M9.45,14.02c-.85-1.1-1.57-2.26-2.16-3.47-.29-.6-.56-1.21-.79-1.83h.25V1.58h22.47v14.68H11.51v.04c-.24-.23-.48-.47-.72-.72-.47-.49-.92-1.02-1.34-1.57Z"/>
      <path class="cls-132" d="M9.54,13.95c-.85-1.1-1.56-2.25-2.15-3.45-.29-.6-.55-1.21-.78-1.82h.15V1.58h22.47v14.68H11.95v.31c-.12-.11-.25-.23-.37-.34-.24-.23-.48-.47-.71-.72-.47-.49-.91-1.01-1.33-1.56Z"/>
      <path class="cls-269" d="M9.62,13.89c-.84-1.09-1.55-2.24-2.14-3.43-.29-.59-.55-1.2-.78-1.81h.05V1.58h22.47v14.68H12.4v.56c-1-.87-1.94-1.84-2.78-2.93Z"/>
      <path class="cls-269" d="M9.71,13.82c-1.67-2.17-2.83-4.57-3.48-7.06h.54V1.58h22.47v14.68H12.47v.48c-1-.86-1.93-1.83-2.76-2.92Z"/>
      <path class="cls-41" d="M9.79,13.76c-1.66-2.16-2.81-4.55-3.47-7.03h.43V1.58h22.47v14.68H12.54v.4c-.99-.86-1.91-1.82-2.75-2.9Z"/>
      <path class="cls-142" d="M9.88,13.69c-1.66-2.14-2.8-4.52-3.45-6.99h.33V1.58h22.47v14.68H12.61v.31c-.99-.85-1.9-1.81-2.73-2.89Z"/>
      <path class="cls-148" d="M9.96,13.63c-1.65-2.13-2.78-4.5-3.43-6.95h.23V1.58h22.47v14.68H12.68v.23c-.98-.85-1.89-1.8-2.72-2.87Z"/>
      <path class="cls-276" d="M10.05,13.56c-1.64-2.12-2.77-4.47-3.41-6.91h.12V1.58h22.47v14.68H12.75v.15c-.98-.84-1.88-1.79-2.7-2.85Z"/>
      <path class="cls-162" d="M10.13,13.49c-1.63-2.11-2.75-4.45-3.39-6.87h.02V1.58h22.47v14.68H12.82v.07c-.97-.84-1.87-1.78-2.69-2.84Z"/>
      <path class="cls-136" d="M10.22,13.43c-1.62-2.1-2.74-4.42-3.37-6.84-.32-1.21-.51-2.43-.59-3.66h.51v-1.35h22.47v14.68h-15.61v.59c-.25-.19-.5-.4-.74-.6-.97-.83-1.86-1.77-2.67-2.82Z"/>
      <path class="cls-1" d="M10.3,13.36c-1.61-2.09-2.72-4.4-3.35-6.8-.32-1.2-.51-2.42-.59-3.64h.4v-1.34h22.47v14.68h-15.54v.51c-.25-.19-.49-.39-.73-.6-.96-.83-1.85-1.76-2.66-2.81Z"/>
      <path class="cls-219" d="M10.39,13.3c-1.6-2.07-2.71-4.37-3.33-6.76-.31-1.19-.51-2.41-.58-3.62h.29v-1.33h22.47v14.68h-15.48v.42c-.25-.19-.49-.39-.73-.6-.96-.82-1.84-1.75-2.64-2.79Z"/>
      <path class="cls-219" d="M10.47,13.23c-1.59-2.06-2.69-4.35-3.31-6.72-.31-1.19-.5-2.39-.58-3.6h.19v-1.33h22.47v14.68h-15.41v.34c-.25-.19-.49-.39-.72-.59-.95-.82-1.83-1.74-2.63-2.78Z"/>
      <path class="cls-112" d="M10.56,13.17c-1.58-2.05-2.68-4.33-3.3-6.68-.31-1.18-.5-2.38-.58-3.58h.08v-1.32h22.47v14.68h-15.34v.25c-.24-.19-.48-.39-.72-.59-.94-.81-1.82-1.74-2.61-2.76Z"/>
      <path class="cls-110" d="M10.64,13.1c-1.57-2.04-2.66-4.3-3.28-6.64-.31-1.17-.5-2.36-.57-3.56-.04-.6-.05-1.2-.03-1.79v.48h22.47v14.68h-15.28v.17c-.24-.19-.48-.38-.72-.59-.94-.81-1.81-1.73-2.6-2.74Z"/>
      <path class="cls-80" d="M10.73,13.04c-1.57-2.03-2.65-4.28-3.26-6.61-.31-1.17-.5-2.35-.57-3.54-.04-.59-.05-1.19-.03-1.78v.48h22.36v14.68h-14.48v.63c-.5-.35-.98-.73-1.45-1.13-.93-.8-1.8-1.72-2.58-2.73Z"/>
      <path class="cls-244" d="M10.81,12.97c-1.56-2.02-2.63-4.25-3.24-6.57-.3-1.16-.49-2.34-.57-3.52-.04-.59-.05-1.18-.03-1.77v.47h22.26v14.68h-14.41v.54c-.5-.35-.98-.72-1.44-1.12-.93-.8-1.79-1.71-2.57-2.71Z"/>
      <path class="cls-220" d="M10.9,12.91c-1.55-2-2.61-4.23-3.22-6.53-.3-1.15-.49-2.32-.57-3.5-.04-.59-.05-1.18-.03-1.76v.47h22.15v14.68h-14.35v.45c-.49-.35-.97-.72-1.43-1.11-.92-.8-1.78-1.7-2.55-2.7Z"/>
      <path class="cls-81" d="M10.98,12.84c-1.54-1.99-2.6-4.2-3.2-6.49-.3-1.14-.49-2.31-.56-3.48-.04-.58-.05-1.17-.03-1.75v.47h22.04v14.68h-14.29v.37c-.49-.34-.96-.71-1.42-1.11-.92-.79-1.77-1.69-2.54-2.68Z"/>
      <path class="cls-53" d="M11.07,12.77c-1.53-1.98-2.58-4.18-3.18-6.45-.3-1.14-.48-2.3-.56-3.46-.04-.58-.05-1.16-.03-1.74v.46h21.94v14.68h-14.23v.28c-.49-.34-.96-.71-1.41-1.1-.91-.79-1.76-1.68-2.52-2.67Z"/>
      <path class="cls-155" d="M11.15,12.71c-1.52-1.97-2.57-4.15-3.16-6.42-.3-1.13-.48-2.28-.56-3.44-.04-.58-.05-1.15-.03-1.73v.46h21.83v14.68h-14.17v.19c-.48-.34-.95-.7-1.41-1.1-.91-.78-1.75-1.67-2.51-2.65Z"/>
      <path class="cls-264" d="M11.24,12.64c-1.51-1.96-2.55-4.13-3.15-6.38-.3-1.12-.48-2.27-.55-3.42-.04-.57-.05-1.15-.03-1.72v.46h21.72v14.68h-14.11v.1c-.48-.34-.95-.7-1.4-1.09-.9-.78-1.74-1.66-2.49-2.63Z"/>
      <path class="cls-34" d="M11.32,12.58c-1.5-1.95-2.54-4.1-3.13-6.34-.29-1.12-.48-2.26-.55-3.4-.04-.57-.04-1.14-.03-1.71v.45h21.61v14.68h-14.05v.02c-.48-.34-.94-.7-1.39-1.08-.9-.77-1.73-1.65-2.48-2.62Z"/>
      <path class="cls-179" d="M11.4,12.51c-1.49-1.93-2.52-4.08-3.11-6.3-.29-1.11-.47-2.24-.55-3.38-.04-.57-.04-1.13-.03-1.7v.45h21.51v14.68h-13.26v.41c-.24-.15-.49-.31-.72-.48-.47-.33-.94-.69-1.38-1.08-.89-.77-1.72-1.64-2.46-2.6Z"/>
      <path class="cls-20" d="M11.49,12.45c-1.48-1.92-2.51-4.05-3.09-6.26-.29-1.1-.47-2.23-.54-3.36-.04-.56-.04-1.13-.03-1.69v.45h21.4v14.68h-13.2v.32c-.24-.15-.48-.31-.72-.48-.47-.33-.93-.69-1.37-1.07-.88-.76-1.71-1.63-2.45-2.59Z"/>
      <path class="cls-233" d="M11.57,12.38c-1.47-1.91-2.49-4.03-3.07-6.22-.29-1.1-.47-2.21-.54-3.33-.04-.56-.04-1.12-.03-1.68v.44h21.29v14.68h-13.15v.23c-.24-.15-.48-.31-.71-.47-.47-.33-.92-.68-1.36-1.06-.88-.76-1.7-1.62-2.43-2.57Z"/>
      <path class="cls-89" d="M11.66,12.32c-1.47-1.9-2.48-4-3.05-6.19-.29-1.09-.46-2.2-.54-3.31-.04-.56-.04-1.11-.03-1.67v.44h21.19v14.68h-12.36v.57c-1.97-1.11-3.75-2.62-5.21-4.52Z"/>
      <path class="cls-141" d="M11.74,12.25c-1.46-1.89-2.46-3.98-3.03-6.15-.29-1.08-.46-2.19-.53-3.29-.04-.55-.04-1.11-.03-1.66v.43h21.08v14.68h-12.31v.48c-1.95-1.1-3.72-2.6-5.18-4.49Z"/>
      <path class="cls-159" d="M11.83,12.18c-1.45-1.88-2.45-3.95-3.01-6.11-.28-1.08-.46-2.17-.53-3.27-.03-.55-.04-1.1-.03-1.65v.43h20.97v14.68h-12.26v.38c-1.94-1.09-3.7-2.59-5.15-4.46Z"/>
      <path class="cls-217" d="M11.91,12.12c-1.44-1.86-2.43-3.93-2.99-6.07-.28-1.07-.46-2.16-.53-3.25-.03-.55-.04-1.09-.03-1.64v.43h20.86v14.68h-12.2v.29c-1.93-1.09-3.68-2.57-5.12-4.43Z"/>
      <path class="cls-54" d="M12,12.05c-1.43-1.85-2.42-3.91-2.98-6.03-.28-1.06-.45-2.15-.52-3.23-.03-.54-.04-1.09-.02-1.63v.42h20.76v14.68h-12.15v.2c-1.92-1.08-3.65-2.55-5.08-4.41Z"/>
      <path class="cls-127" d="M12.08,11.99c-1.42-1.84-2.4-3.88-2.96-6-.28-1.06-.45-2.13-.52-3.21-.03-.54-.04-1.08-.02-1.62v.42h20.65v14.68h-12.1v.1c-1.91-1.07-3.63-2.54-5.05-4.38Z"/>
      <path class="cls-260" d="M12.17,11.92c-1.41-1.83-2.39-3.86-2.94-5.96-.28-1.05-.45-2.12-.52-3.19-.03-.54-.04-1.07-.02-1.61v.42h20.54v14.68h-12.05c-1.89-1.06-3.61-2.51-5.02-4.34Z"/>
      <path class="cls-203" d="M12.25,11.86c-1.4-1.82-2.37-3.83-2.92-5.92-.27-1.04-.44-2.11-.51-3.17-.03-.53-.04-1.07-.02-1.6v.41h20.44v14.68h-11.28v.3c-.24-.12-.48-.25-.71-.38-1.88-1.06-3.58-2.51-4.99-4.32Z"/>
      <path class="cls-120" d="M12.34,11.79c-1.39-1.8-2.35-3.81-2.9-5.88-.27-1.04-.44-2.09-.51-3.15-.03-.53-.04-1.06-.02-1.59v.41h20.33v14.68h-10.51v.54c-.49-.22-.97-.45-1.43-.72-1.87-1.05-3.56-2.49-4.95-4.29Z"/>
      <path class="cls-120" d="M12.42,11.73c-1.38-1.79-2.34-3.78-2.88-5.84-.27-1.03-.44-2.08-.51-3.13-.03-.53-.04-1.05-.02-1.58v.41h20.22v14.68h-10.46v.44c-.48-.21-.96-.45-1.42-.71-1.86-1.05-3.54-2.47-4.92-4.27Z"/>
      <path class="cls-37" d="M12.51,11.66c-1.38-1.78-2.32-3.76-2.86-5.8-.27-1.02-.44-2.07-.5-3.11-.03-.52-.04-1.04-.02-1.57v.4h20.11v14.68h-10.42v.34c-.48-.21-.95-.45-1.41-.71-1.84-1.04-3.52-2.46-4.89-4.24Z"/>
      <path class="cls-116" d="M12.59,11.6c-1.37-1.77-2.31-3.73-2.84-5.77-.27-1.02-.43-2.05-.5-3.09-.03-.52-.04-1.04-.02-1.56v.4h20.01v14.68h-10.38v.25c-.48-.21-.95-.45-1.4-.7-1.83-1.03-3.49-2.44-4.86-4.21Z"/>
      <path class="cls-164" d="M12.68,11.53c-1.36-1.76-2.29-3.71-2.83-5.73-.27-1.01-.43-2.04-.5-3.07-.03-.52-.04-1.03-.02-1.55v.4h19.9v14.68h-10.33v.15c-.47-.21-.94-.44-1.4-.7-1.82-1.03-3.47-2.43-4.83-4.18Z"/>
      <path class="cls-277" d="M12.76,11.46c-1.35-1.75-2.28-3.68-2.81-5.69-.26-1-.43-2.02-.49-3.05-.03-.51-.04-1.02-.02-1.54v.39h19.79v14.68h-8.85v.6c-.97-.32-1.92-.74-2.82-1.25-1.81-1.02-3.45-2.41-4.79-4.16Z"/>
      <path class="cls-62" d="M12.85,11.4c-1.34-1.73-2.26-3.66-2.79-5.65-.26-1-.42-2.01-.49-3.03-.03-.51-.04-1.02-.02-1.53v.39h19.69v14.68h-8.82v.5c-.97-.32-1.91-.73-2.81-1.24-1.8-1.01-3.42-2.39-4.76-4.13Z"/>
      <path class="cls-138" d="M12.93,11.33c-1.33-1.72-2.25-3.63-2.77-5.61-.26-.99-.42-2-.49-3.01-.03-.5-.04-1.01-.02-1.52v.39h19.58v14.68h-8.78v.4c-.96-.32-1.89-.73-2.79-1.23-1.78-1.01-3.4-2.38-4.73-4.1Z"/>
      <path class="cls-90" d="M13.02,11.27c-1.32-1.71-2.23-3.61-2.75-5.58-.26-.98-.42-1.98-.48-2.99-.03-.5-.04-1-.02-1.5v.38h19.47v14.68h-8.75v.3c-.95-.32-1.88-.72-2.77-1.22-1.77-1-3.38-2.36-4.7-4.07Z"/>
      <path class="cls-61" d="M13.1,11.2c-1.31-1.7-2.22-3.58-2.73-5.54-.26-.98-.42-1.97-.48-2.97-.03-.5-.04-1-.02-1.49v.38h19.36v14.68h-8.72v.2c-.95-.31-1.87-.72-2.75-1.21-1.76-.99-3.35-2.34-4.67-4.04Z"/>
      <path class="cls-9" d="M13.19,11.14c-1.3-1.69-2.2-3.56-2.71-5.5-.26-.97-.41-1.96-.48-2.95-.03-.49-.04-.99-.02-1.48v.38h19.26v14.68h-8.68v.1c-.94-.31-1.86-.71-2.73-1.21-1.75-.98-3.33-2.33-4.63-4.02Z"/>
      <path class="cls-133" d="M13.27,11.07c-1.29-1.68-2.19-3.53-2.69-5.46-.25-.96-.41-1.94-.47-2.93-.03-.49-.04-.98-.02-1.47v.37h19.15v14.68h-7.23v.39c-.48-.11-.95-.24-1.42-.39-.93-.31-1.84-.71-2.71-1.2-1.74-.98-3.31-2.31-4.6-3.99Z"/>
      <path class="cls-133" d="M13.36,11.01c-1.28-1.66-2.17-3.51-2.67-5.42-.25-.96-.41-1.93-.47-2.91-.03-.49-.04-.98-.02-1.46v.37h19.04v14.68h-5.77v.54c-3.86-.5-7.54-2.47-10.11-5.8Z"/>
      <path class="cls-149" d="M13.43,10.95c-1.28-1.65-2.16-3.49-2.66-5.39-.25-.95-.4-1.92-.47-2.89-.03-.48-.04-.97-.02-1.45v.37h18.95v14.68h-5.76v.45c-3.84-.49-7.49-2.45-10.05-5.76Z"/>
      <path class="cls-284" d="M13.51,10.89c-1.27-1.64-2.14-3.47-2.64-5.36-.25-.94-.4-1.91-.46-2.87-.03-.48-.04-.96-.02-1.45v.36h18.85v14.66h0c-1.89.5-3.84.62-5.75.37-3.82-.49-7.45-2.44-9.98-5.73Z"/>
      <path class="cls-115" d="M13.58,10.83c-1.26-1.63-2.13-3.44-2.62-5.32-.25-.94-.4-1.89-.46-2.85-.03-.48-.04-.96-.02-1.44v.36h18.76v14.47h.34c-.12.03-.23.07-.35.1-1.88.49-3.82.61-5.72.37-3.79-.49-7.4-2.42-9.92-5.69Z"/>
      <path class="cls-28" d="M13.66,10.77c-1.25-1.62-2.12-3.42-2.61-5.29-.25-.93-.4-1.88-.46-2.83-.03-.48-.04-.95-.02-1.43v.36h18.67v14.38h.31c-.12.03-.23.07-.35.1-1.87.49-3.8.61-5.68.37-3.77-.48-7.35-2.41-9.86-5.65Z"/>
      <path class="cls-31" d="M13.73,10.72c-1.24-1.61-2.1-3.4-2.59-5.25-.24-.93-.39-1.87-.45-2.81-.03-.47-.04-.95-.02-1.42v.35h18.57v14.19h.63c-.23.07-.46.14-.69.2-1.85.49-3.77.6-5.64.36-3.74-.48-7.31-2.39-9.8-5.62Z"/>
      <path class="cls-130" d="M13.81,10.66c-1.24-1.6-2.09-3.38-2.57-5.22-.24-.92-.39-1.86-.45-2.8-.03-.47-.04-.94-.02-1.41v.35h18.48v14.1h.6c-.23.07-.46.14-.69.2-1.84.48-3.75.6-5.61.36-3.72-.48-7.26-2.38-9.73-5.58Z"/>
      <path class="cls-168" d="M13.88,10.6c-1.23-1.59-2.08-3.36-2.56-5.19-.24-.91-.39-1.85-.45-2.78-.03-.47-.04-.93-.02-1.4v.35h18.38v14.01h.57c-.23.07-.45.14-.68.2-1.83.48-3.72.6-5.57.36-3.7-.48-7.21-2.36-9.67-5.55Z"/>
      <path class="cls-227" d="M13.96,10.54c-1.22-1.58-2.06-3.34-2.54-5.15-.24-.91-.39-1.83-.45-2.76-.03-.46-.04-.93-.02-1.39v.35h18.29v13.92h.54c-.23.07-.45.14-.68.2-1.82.48-3.7.59-5.54.36-3.67-.47-7.17-2.35-9.61-5.51Z"/>
      <path class="cls-114" d="M14.03,10.49c-1.21-1.57-2.05-3.31-2.53-5.12-.24-.9-.38-1.82-.44-2.74-.03-.46-.04-.92-.02-1.38v.34h18.19v13.83h.51c-.22.07-.45.14-.67.2-1.81.48-3.68.59-5.5.35-3.65-.47-7.12-2.33-9.54-5.47Z"/>
      <path class="cls-107" d="M14.1,10.43c-1.2-1.56-2.04-3.29-2.51-5.09-.24-.9-.38-1.81-.44-2.72-.03-.46-.04-.92-.02-1.37v.34h18.1v13.74h.49c-.22.07-.45.13-.67.19-1.79.47-3.65.58-5.46.35-3.62-.47-7.07-2.32-9.48-5.44Z"/>
      <path class="cls-51" d="M14.18,10.37c-1.2-1.55-2.02-3.27-2.49-5.05-.23-.89-.38-1.8-.44-2.71-.03-.45-.04-.91-.02-1.36v.34h18v13.65h.46c-.22.07-.44.13-.67.19-1.78.47-3.63.58-5.43.35-3.6-.46-7.02-2.3-9.42-5.4Z"/>
      <path class="cls-45" d="M14.25,10.31c-1.19-1.54-2.01-3.25-2.48-5.02-.23-.89-.38-1.79-.43-2.69-.03-.45-.04-.9-.02-1.35v.33h17.91v13.56h.43c-.22.07-.44.13-.66.19-1.77.47-3.6.58-5.39.35-3.58-.46-6.98-2.28-9.36-5.37Z"/>
      <path class="cls-48" d="M14.33,10.25c-1.18-1.53-2-3.23-2.46-4.98-.23-.88-.37-1.77-.43-2.67-.03-.45-.04-.9-.02-1.35v.33h17.81v13.47h.4c-.22.07-.44.13-.66.19-1.76.46-3.58.57-5.35.34-3.55-.46-6.93-2.27-9.29-5.33Z"/>
      <path class="cls-55" d="M14.4,10.2c-1.17-1.52-1.98-3.2-2.44-4.95-.23-.87-.37-1.76-.43-2.65-.03-.45-.03-.89-.02-1.34v.33h17.72v13.37h.37c-.22.07-.43.13-.65.19-1.75.46-3.55.57-5.32.34-3.53-.45-6.88-2.25-9.23-5.29Z"/>
      <path class="cls-266" d="M14.48,10.14c-1.17-1.51-1.97-3.18-2.43-4.92-.23-.87-.37-1.75-.43-2.63-.03-.44-.03-.89-.02-1.33v.32h17.63v13.28h.34c-.21.07-.43.13-.65.19-1.73.46-3.53.57-5.28.34-3.5-.45-6.84-2.24-9.17-5.26Z"/>
      <path class="cls-249" d="M14.55,10.08c-1.16-1.5-1.96-3.16-2.41-4.88-.23-.86-.37-1.74-.42-2.62-.03-.44-.03-.88-.02-1.32v.32h17.53v13.19h.31c-.21.07-.43.13-.64.19-1.72.45-3.51.56-5.25.34-3.48-.45-6.79-2.22-9.1-5.22Z"/>
      <path class="cls-119" d="M14.63,10.02c-1.15-1.49-1.94-3.14-2.39-4.85-.23-.86-.36-1.73-.42-2.6-.03-.44-.03-.87-.02-1.31v.32h17.44v13.1h.29c-.21.07-.42.13-.64.18-1.71.45-3.48.56-5.21.34-3.46-.44-6.74-2.21-9.04-5.19Z"/>
      <path class="cls-98" d="M14.7,9.97c-1.14-1.48-1.93-3.12-2.38-4.82-.22-.85-.36-1.71-.42-2.58-.03-.43-.03-.87-.02-1.3v.32h17.34v13.01h.26c-.21.07-.42.13-.63.18-1.7.45-3.46.55-5.17.33-3.43-.44-6.7-2.19-8.98-5.15Z"/>
      <path class="cls-42" d="M14.78,9.91c-1.13-1.47-1.92-3.1-2.36-4.78-.22-.84-.36-1.7-.41-2.56-.03-.43-.03-.86-.02-1.29v.31h17.25v12.92h.23c-.21.07-.42.13-.63.18-1.69.44-3.43.55-5.14.33-3.41-.44-6.65-2.18-8.92-5.11Z"/>
      <path class="cls-87" d="M14.85,9.85c-1.13-1.46-1.9-3.07-2.34-4.75-.22-.84-.36-1.69-.41-2.54-.03-.43-.03-.85-.02-1.28v.31h17.15v12.83h.2c-.21.07-.42.13-.63.18-1.68.44-3.41.55-5.1.33-3.38-.44-6.6-2.16-8.85-5.08Z"/>
      <path class="cls-85" d="M14.93,9.79c-1.12-1.45-1.89-3.05-2.33-4.72-.22-.83-.35-1.68-.41-2.53-.03-.42-.03-.85-.02-1.27v.31h17.06v12.74h.17c-.21.07-.41.13-.62.18-1.66.44-3.38.54-5.07.33-3.36-.43-6.56-2.15-8.79-5.04Z"/>
      <path class="cls-126" d="M15,9.73c-1.11-1.44-1.87-3.03-2.31-4.68-.22-.83-.35-1.67-.41-2.51-.03-.42-.03-.84-.02-1.26v.3h16.96v12.65h.14c-.2.06-.41.12-.62.18-1.65.43-3.36.54-5.03.32-3.34-.43-6.51-2.13-8.73-5.01Z"/>
      <path class="cls-27" d="M15.08,9.68c-1.1-1.43-1.86-3.01-2.29-4.65-.22-.82-.35-1.65-.4-2.49-.03-.42-.03-.84-.02-1.25v.3h16.87v12.56h.12c-.2.06-.41.12-.61.18-1.64.43-3.34.53-4.99.32-3.31-.43-6.46-2.12-8.67-4.97Z"/>
      <path class="cls-128" d="M15.15,9.62c-1.09-1.42-1.85-2.99-2.28-4.61-.21-.81-.35-1.64-.4-2.47-.03-.42-.03-.83-.02-1.25v.3h16.77v12.47h.09c-.2.06-.4.12-.61.18-1.63.43-3.31.53-4.96.32-3.29-.42-6.42-2.1-8.6-4.93Z"/>
      <path class="cls-23" d="M15.23,9.56c-1.09-1.41-1.83-2.96-2.26-4.58-.21-.81-.34-1.63-.4-2.45-.03-.41-.03-.82-.02-1.24v.29h16.68v12.38h.06c-.2.06-.4.12-.6.17-1.62.43-3.29.53-4.92.32-3.26-.42-6.37-2.09-8.54-4.9Z"/>
      <path class="cls-117" d="M15.3,9.5c-1.08-1.4-1.82-2.94-2.24-4.55-.21-.8-.34-1.62-.39-2.44-.03-.41-.03-.82-.02-1.23v.29h16.59v12.09h.62c-.39.15-.79.27-1.19.38-1.6.42-3.26.52-4.88.31-3.24-.42-6.32-2.07-8.48-4.86Z"/>
      <path class="cls-258" d="M15.38,9.45c-1.07-1.39-1.81-2.92-2.23-4.51-.21-.8-.34-1.61-.39-2.42-.03-.41-.03-.81-.02-1.22v.29h16.49v12h.59c-.39.14-.78.27-1.18.37-1.59.42-3.24.52-4.85.31-3.22-.41-6.28-2.05-8.41-4.82Z"/>
      <path class="cls-243" d="M15.45,9.39c-1.06-1.37-1.79-2.9-2.21-4.48-.21-.79-.34-1.59-.39-2.4-.03-.4-.03-.81-.02-1.21v.29h16.4v11.91h.56c-.39.14-.78.27-1.17.37-1.58.42-3.22.51-4.81.31-3.19-.41-6.23-2.04-8.35-4.79Z"/>
      <path class="cls-103" d="M15.53,9.33c-1.05-1.36-1.78-2.88-2.19-4.45-.21-.78-.33-1.58-.38-2.38-.03-.4-.03-.8-.02-1.2v.28h16.3v11.82h.52c-.38.14-.77.27-1.16.37-1.57.41-3.19.51-4.78.31-3.17-.41-6.18-2.02-8.29-4.75Z"/>
      <path class="cls-104" d="M15.6,9.27c-1.05-1.35-1.77-2.86-2.18-4.41-.2-.78-.33-1.57-.38-2.36-.03-.4-.03-.79-.02-1.19v.28h16.21v11.73h.49c-.38.14-.77.26-1.16.37-1.56.41-3.17.51-4.74.3-3.14-.4-6.14-2.01-8.23-4.72Z"/>
      <path class="cls-29" d="M15.68,9.21c-1.04-1.34-1.75-2.83-2.16-4.38-.2-.77-.33-1.56-.38-2.35-.02-.39-.03-.79-.02-1.18v.28h16.11v11.65h.46c-.38.14-.76.26-1.15.36-1.54.41-3.14.5-4.7.3-3.12-.4-6.09-1.99-8.16-4.68Z"/>
      <path class="cls-135" d="M15.75,9.16c-1.03-1.33-1.74-2.81-2.14-4.34-.2-.77-.33-1.55-.38-2.33-.02-.39-.03-.78-.02-1.17v.27h16.02v11.56h.42c-.37.14-.75.26-1.14.36-1.53.4-3.12.5-4.67.3-3.1-.4-6.04-1.98-8.1-4.64Z"/>
      <path class="cls-7" d="M15.83,9.1c-1.02-1.32-1.73-2.79-2.13-4.31-.2-.76-.32-1.53-.37-2.31-.02-.39-.03-.78-.02-1.16v.27h15.92v11.47h.39c-.37.14-.75.26-1.13.36-1.52.4-3.09.5-4.63.3-3.07-.4-5.99-1.96-8.04-4.61Z"/>
      <path class="cls-204" d="M15.9,9.04c-1.01-1.31-1.71-2.77-2.11-4.28-.2-.75-.32-1.52-.37-2.29-.02-.38-.03-.77-.02-1.15v.27h15.83v11.38h.36c-.37.14-.74.26-1.12.35-1.51.4-3.07.49-4.59.3-3.05-.39-5.95-1.95-7.97-4.57Z"/>
      <path class="cls-270" d="M15.98,8.98c-1.01-1.3-1.7-2.75-2.09-4.24-.2-.75-.32-1.51-.37-2.27-.02-.38-.03-.76-.02-1.15v.26h15.73v11.29h.33c-.37.14-.74.25-1.11.35-1.5.39-3.05.49-4.56.29-3.02-.39-5.9-1.93-7.91-4.54Z"/>
      <path class="cls-254" d="M16.05,8.92c-1-1.29-1.69-2.72-2.08-4.21-.2-.74-.32-1.5-.36-2.26-.02-.38-.03-.76-.02-1.14v.26h15.64v11.2h.29c-.36.14-.73.25-1.1.35-1.49.39-3.02.48-4.52.29-3-.39-5.85-1.92-7.85-4.5Z"/>
      <path class="cls-275" d="M16.13,8.87c-.99-1.28-1.67-2.7-2.06-4.18-.19-.74-.31-1.49-.36-2.24-.02-.38-.03-.75-.02-1.13v.26h15.55v11.11h.26c-.36.13-.73.25-1.09.35-1.47.39-3,.48-4.49.29-2.98-.38-5.81-1.9-7.79-4.46Z"/>
      <path class="cls-210" d="M16.2,8.81c-.98-1.27-1.66-2.68-2.04-4.14-.19-.73-.31-1.47-.36-2.22-.02-.37-.03-.75-.02-1.12v.25h15.45v11.02h.23c-.36.13-.72.25-1.08.34-1.46.38-2.97.48-4.45.29-2.95-.38-5.76-1.89-7.72-4.43Z"/>
      <path class="cls-196" d="M16.28,8.75c-.97-1.26-1.65-2.66-2.03-4.11-.19-.72-.31-1.46-.36-2.2-.02-.37-.03-.74-.02-1.11v.25h15.36v10.94h.19c-.35.13-.71.25-1.08.34-1.45.38-2.95.47-4.41.28-2.93-.38-5.71-1.87-7.66-4.39Z"/>
      <path class="cls-69" d="M16.35,8.69c-.97-1.25-1.63-2.64-2.01-4.08-.19-.72-.31-1.45-.35-2.18-.02-.37-.03-.73-.02-1.1v.25h15.26v10.85h.16c-.35.13-.71.24-1.07.34-1.44.38-2.93.47-4.38.28-2.9-.37-5.67-1.86-7.6-4.36Z"/>
      <path class="cls-166" d="M16.43,8.64c-.96-1.24-1.62-2.62-1.99-4.04-.19-.71-.3-1.44-.35-2.17-.02-.36-.03-.73-.02-1.09v.25h15.17v10.76h.13c-.35.13-.7.24-1.06.34-1.43.38-2.9.46-4.34.28-2.88-.37-5.62-1.84-7.53-4.32Z"/>
      <path class="cls-255" d="M16.5,8.58c-.95-1.23-1.6-2.59-1.98-4.01-.19-.71-.3-1.43-.35-2.15-.02-.36-.03-.72-.02-1.08v.24h15.07v10.67h.09c-.35.13-.7.24-1.05.33-1.41.37-2.88.46-4.31.28-2.86-.37-5.57-1.82-7.47-4.28Z"/>
      <path class="cls-70" d="M16.58,8.52c-.94-1.22-1.59-2.57-1.96-3.97-.18-.7-.3-1.41-.34-2.13-.02-.36-.03-.72-.02-1.07v.24h14.98v10.58h.06c-.34.13-.69.24-1.04.33-1.4.37-2.85.46-4.27.27-2.83-.36-5.53-1.81-7.41-4.25Z"/>
      <path class="cls-63" d="M16.65,8.46c-.93-1.21-1.58-2.55-1.94-3.94-.18-.69-.3-1.4-.34-2.11-.02-.35-.03-.71-.02-1.06v.24h14.88v10.49h.03c-.34.13-.68.24-1.03.33-1.39.37-2.83.45-4.23.27-2.81-.36-5.48-1.79-7.35-4.21Z"/>
      <path class="cls-67" d="M16.73,8.4c-.93-1.2-1.56-2.53-1.93-3.91-.18-.69-.29-1.39-.34-2.09-.02-.35-.03-.7-.02-1.05v.23h14.79v10.2h.5c-.17.07-.33.14-.5.2-.34.13-.68.23-1.02.32-1.38.36-2.8.45-4.2.27-2.78-.36-5.43-1.78-7.28-4.18Z"/>
      <path class="cls-78" d="M16.8,8.35c-.92-1.19-1.55-2.51-1.91-3.87-.18-.68-.29-1.38-.34-2.08-.02-.35-.03-.7-.02-1.05v.23h14.69v10.12h.46c-.16.07-.33.14-.5.2-.33.12-.67.23-1.01.32-1.37.36-2.78.45-4.16.27-2.76-.36-5.39-1.76-7.22-4.14Z"/>
      <path class="cls-184" d="M16.88,8.29c-.91-1.18-1.54-2.49-1.89-3.84-.18-.68-.29-1.37-.33-2.06-.02-.35-.03-.69-.02-1.04v.23h14.6v10.03h.42c-.16.07-.33.14-.49.2-.33.12-.67.23-1.01.32-1.35.36-2.76.44-4.12.27-2.74-.35-5.34-1.75-7.16-4.1Z"/>
      <path class="cls-83" d="M16.95,8.23c-.9-1.17-1.52-2.46-1.88-3.81-.18-.67-.29-1.35-.33-2.04-.02-.34-.03-.69-.02-1.03v.22h14.51v9.94h.39c-.16.07-.33.13-.49.2-.33.12-.66.23-1,.32-1.34.35-2.73.44-4.09.26-2.71-.35-5.29-1.73-7.1-4.07Z"/>
      <path class="cls-147" d="M17.02,8.17c-.89-1.16-1.51-2.44-1.86-3.77-.18-.67-.28-1.34-.33-2.02-.02-.34-.03-.68-.02-1.02v.22h14.41v9.85h.35c-.16.07-.32.13-.49.19-.33.12-.66.23-.99.31-1.33.35-2.71.43-4.05.26-2.69-.35-5.25-1.72-7.03-4.03Z"/>
      <path class="cls-65" d="M17.1,8.12c-.89-1.15-1.5-2.42-1.84-3.74-.17-.66-.28-1.33-.32-2-.02-.34-.03-.67-.02-1.01v.22h14.32v9.77h.31c-.16.07-.32.13-.48.19-.32.12-.65.22-.98.31-1.32.35-2.68.43-4.02.26-2.66-.34-5.2-1.7-6.97-4Z"/>
      <path class="cls-100" d="M17.17,8.06c-.88-1.14-1.48-2.4-1.83-3.7-.17-.65-.28-1.32-.32-1.98-.02-.33-.03-.67-.02-1v.22h14.22v9.68h.27c-.16.07-.32.13-.48.19-.32.12-.64.22-.97.31-1.31.34-2.66.43-3.98.26-2.64-.34-5.15-1.69-6.91-3.96Z"/>
      <path class="cls-43" d="M17.25,8c-.87-1.13-1.47-2.38-1.81-3.67-.17-.65-.28-1.31-.32-1.97-.02-.33-.03-.66-.02-.99v.21h14.13v9.59h.24c-.16.07-.31.13-.47.19-.32.12-.64.22-.96.3-1.29.34-2.64.42-3.94.25-2.62-.34-5.1-1.67-6.84-3.92Z"/>
      <path class="cls-43" d="M17.32,7.94c-.86-1.12-1.46-2.35-1.79-3.64-.17-.64-.27-1.29-.31-1.95-.02-.33-.03-.65-.02-.98v.21h14.03v9.51h.2c-.15.07-.31.13-.47.19-.31.12-.63.22-.95.3-1.28.34-2.61.42-3.91.25-2.59-.33-5.06-1.66-6.78-3.89Z"/>
      <path class="cls-245" d="M17.35,7.92c-.86-1.11-1.45-2.35-1.79-3.63-.17-.64-.27-1.29-.31-1.94-.02-.33-.03-.65-.02-.98v.21h14v9.48h.19c-.15.07-.31.13-.47.19-.31.12-.63.22-.95.3-1.28.34-2.6.42-3.9.25-2.58-.33-5.04-1.65-6.76-3.88Z"/>
      <path class="cls-140" d="M17.37,7.91c-.86-1.11-1.45-2.34-1.78-3.62-.17-.64-.27-1.29-.31-1.94-.02-.33-.03-.65-.01-.98v.21h13.97v9.45h.18c-.15.07-.31.13-.46.19-.31.12-.63.22-.95.3-1.28.34-2.6.42-3.88.25-2.58-.33-5.03-1.65-6.74-3.87Z"/>
      <path class="cls-74" d="M17.4,7.89c-.85-1.11-1.44-2.33-1.78-3.6-.17-.64-.27-1.28-.31-1.93-.02-.32-.03-.65-.01-.97v.21h13.94v9.21h.62c-.6.3-1.23.53-1.86.69-1.27.33-2.59.41-3.87.25-2.57-.33-5.01-1.64-6.72-3.85Z"/>
      <path class="cls-74" d="M17.42,7.87c-.85-1.1-1.44-2.33-1.77-3.59-.17-.63-.27-1.28-.31-1.93-.02-.32-.03-.65-.01-.97v.21h13.91v9.19h.61c-.6.3-1.22.53-1.86.69-1.27.33-2.58.41-3.86.25-2.56-.33-5-1.64-6.7-3.84Z"/>
      <path class="cls-161" d="M17.44,7.85c-.85-1.1-1.43-2.32-1.77-3.58-.17-.63-.27-1.28-.31-1.92-.02-.32-.03-.65-.01-.97v.2h13.88v9.16h.59c-.6.29-1.22.52-1.85.69-1.26.33-2.57.41-3.85.25-2.55-.33-4.98-1.63-6.68-3.83Z"/>
      <path class="cls-273" d="M17.47,7.83c-.85-1.1-1.43-2.31-1.76-3.57-.17-.63-.27-1.27-.31-1.91-.02-.32-.03-.64-.01-.96v.2h13.85v9.13h.58c-.6.29-1.22.52-1.85.69-1.26.33-2.56.41-3.84.25-2.55-.33-4.97-1.63-6.66-3.82Z"/>
      <path class="cls-273" d="M17.49,7.81c-.84-1.09-1.43-2.31-1.76-3.56-.17-.63-.27-1.27-.31-1.91-.02-.32-.03-.64-.01-.96v.2h13.82v9.1h.57c-.6.29-1.21.52-1.84.69-1.26.33-2.56.41-3.83.25-2.54-.33-4.95-1.62-6.64-3.81Z"/>
      <path class="cls-145" d="M17.52,7.79c-.84-1.09-1.42-2.3-1.75-3.55-.16-.63-.27-1.26-.31-1.9-.02-.32-.03-.64-.01-.96v.2h13.79v9.08h.55c-.59.29-1.21.52-1.84.68-1.25.33-2.55.41-3.81.25-2.53-.33-4.94-1.62-6.62-3.8Z"/>
      <path class="cls-279" d="M17.54,7.77c-.84-1.09-1.42-2.29-1.75-3.54-.16-.62-.27-1.26-.31-1.9-.02-.32-.03-.64-.01-.96v.2h13.76v9.05h.54c-.59.29-1.21.52-1.83.68-1.25.33-2.54.41-3.8.24-2.52-.32-4.92-1.61-6.6-3.78Z"/>
      <path class="cls-198" d="M17.57,7.76c-.84-1.08-1.41-2.28-1.74-3.53-.16-.62-.27-1.26-.31-1.89-.02-.32-.02-.64-.01-.95v.2h13.73v9.02h.53c-.59.29-1.2.52-1.83.68-1.24.33-2.53.41-3.79.24-2.52-.32-4.91-1.61-6.58-3.77Z"/>
      <path class="cls-174" d="M17.59,7.74c-.83-1.08-1.41-2.28-1.74-3.52-.16-.62-.26-1.25-.3-1.88-.02-.32-.02-.63-.01-.95v.2h13.7v8.99h.51c-.59.29-1.2.51-1.82.68-1.24.33-2.53.4-3.78.24-2.51-.32-4.89-1.6-6.56-3.76Z"/>
      <path class="cls-94" d="M17.61,7.72c-.83-1.08-1.4-2.27-1.73-3.51-.16-.62-.26-1.25-.3-1.88-.02-.32-.02-.63-.01-.95v.2h13.67v8.97h.5c-.59.29-1.2.51-1.81.68-1.24.33-2.52.4-3.77.24-2.5-.32-4.88-1.6-6.54-3.75Z"/>
      <path class="cls-262" d="M17.64,7.7c-.83-1.07-1.4-2.26-1.72-3.5-.16-.62-.26-1.24-.3-1.87-.02-.31-.02-.63-.01-.94v.2h13.64v8.94h.49c-.59.29-1.19.51-1.81.67-1.23.32-2.51.4-3.76.24-2.49-.32-4.86-1.59-6.52-3.74Z"/>
      <path class="cls-122" d="M17.66,7.68c-.83-1.07-1.4-2.26-1.72-3.49-.16-.61-.26-1.24-.3-1.87-.02-.31-.02-.63-.01-.94v.2h13.61v8.91h.47c-.58.29-1.19.51-1.8.67-1.23.32-2.5.4-3.74.24-2.48-.32-4.85-1.59-6.5-3.73Z"/>
      <path class="cls-236" d="M17.69,7.66c-.82-1.07-1.39-2.25-1.71-3.47-.16-.61-.26-1.24-.3-1.86-.02-.31-.02-.63-.01-.94v.19h13.58v8.88h.46c-.58.29-1.18.51-1.8.67-1.23.32-2.49.4-3.73.24-2.48-.32-4.83-1.58-6.48-3.71Z"/>
      <path class="cls-236" d="M17.71,7.64c-.82-1.06-1.39-2.24-1.71-3.46-.16-.61-.26-1.23-.3-1.86-.02-.31-.02-.62-.01-.93v.19h13.55v8.86h.45c-.58.28-1.18.51-1.79.67-1.22.32-2.49.4-3.72.24-2.47-.32-4.82-1.58-6.46-3.7Z"/>
      <path class="cls-86" d="M17.73,7.63c-.82-1.06-1.38-2.23-1.7-3.45-.16-.61-.26-1.23-.3-1.85-.02-.31-.02-.62-.01-.93v.19h13.52v8.83h.43c-.58.28-1.18.5-1.79.66-1.22.32-2.48.4-3.71.24-2.46-.32-4.8-1.57-6.44-3.69Z"/>
      <path class="cls-182" d="M17.76,7.61c-.82-1.06-1.38-2.23-1.7-3.44-.16-.61-.26-1.22-.3-1.84-.02-.31-.02-.62-.01-.93v.19h13.48v8.8h.42c-.58.28-1.17.5-1.78.66-1.21.32-2.47.4-3.7.24-2.45-.32-4.79-1.57-6.42-3.68Z"/>
      <path class="cls-182" d="M17.78,7.59c-.81-1.05-1.37-2.22-1.69-3.43-.16-.61-.26-1.22-.3-1.84-.02-.31-.02-.62-.01-.93v.19h13.45v8.78h.41c-.57.28-1.17.5-1.77.66-1.21.32-2.46.39-3.69.24-2.45-.31-4.77-1.56-6.4-3.67Z"/>
      <path class="cls-248" d="M17.81,7.57c-.81-1.05-1.37-2.21-1.69-3.42-.16-.6-.26-1.22-.3-1.83-.02-.31-.02-.62-.01-.92v.19h13.42v8.75h.39c-.57.28-1.17.5-1.77.66-1.21.32-2.46.39-3.67.24-2.44-.31-4.76-1.56-6.38-3.66Z"/>
      <path class="cls-108" d="M17.83,7.55c-.81-1.05-1.37-2.21-1.68-3.41-.16-.6-.26-1.21-.3-1.83-.02-.31-.02-.61-.01-.92v.19h13.39v8.72h.38c-.57.28-1.16.5-1.76.66-1.2.32-2.45.39-3.66.24-2.43-.31-4.74-1.55-6.36-3.65Z"/>
      <path class="cls-108" d="M17.85,7.53c-.81-1.04-1.36-2.2-1.68-3.4-.16-.6-.26-1.21-.29-1.82-.02-.31-.02-.61-.01-.92v.19h13.36v8.69h.37c-.57.28-1.16.5-1.76.65-1.2.32-2.44.39-3.65.23-2.42-.31-4.73-1.55-6.34-3.63Z"/>
      <path class="cls-152" d="M17.88,7.51c-.8-1.04-1.36-2.19-1.67-3.39-.16-.6-.25-1.21-.29-1.82-.02-.3-.02-.61-.01-.91v.19h13.33v8.67h.35c-.57.28-1.15.5-1.75.65-1.2.31-2.43.39-3.64.23-2.41-.31-4.71-1.54-6.32-3.62Z"/>
      <path class="cls-202" d="M17.9,7.5c-.8-1.04-1.35-2.19-1.67-3.38-.16-.6-.25-1.2-.29-1.81-.02-.3-.02-.61-.01-.91v.19h13.3v8.64h.34c-.57.28-1.15.49-1.75.65-1.19.31-2.42.39-3.63.23-2.41-.31-4.7-1.54-6.3-3.61Z"/>
      <path class="cls-202" d="M17.93,7.48c-.8-1.03-1.35-2.18-1.66-3.37-.16-.59-.25-1.2-.29-1.8-.02-.3-.02-.61-.01-.91v.19h13.27v8.61h.33c-.56.28-1.15.49-1.74.65-1.19.31-2.42.39-3.62.23-2.4-.31-4.68-1.53-6.28-3.6Z"/>
      <path class="cls-71" d="M17.95,7.46c-.79-1.03-1.34-2.17-1.66-3.36-.16-.59-.25-1.19-.29-1.8-.02-.3-.02-.6-.01-.91v.18h13.24v8.58h.31c-.56.28-1.14.49-1.74.65-1.18.31-2.41.39-3.6.23-2.39-.31-4.67-1.53-6.26-3.59Z"/>
      <path class="cls-52" d="M17.98,7.44c-.79-1.03-1.34-2.16-1.65-3.34-.16-.59-.25-1.19-.29-1.79-.02-.3-.02-.6-.01-.9v.18h13.21v8.56h.3c-.56.27-1.14.49-1.73.64-1.18.31-2.4.38-3.59.23-2.38-.31-4.65-1.52-6.24-3.58Z"/>
      <path class="cls-199" d="M18,7.42c-.79-1.02-1.33-2.16-1.64-3.33-.15-.59-.25-1.19-.29-1.79-.02-.3-.02-.6-.01-.9v.18h13.18v8.53h.29c-.56.27-1.14.49-1.72.64-1.18.31-2.39.38-3.58.23-2.38-.31-4.64-1.52-6.22-3.56Z"/>
      <path class="cls-199" d="M18.02,7.4c-.79-1.02-1.33-2.15-1.64-3.32-.15-.59-.25-1.18-.29-1.78-.02-.3-.02-.6-.01-.9v.18h13.15v8.5h.27c-.56.27-1.13.49-1.72.64-1.17.31-2.39.38-3.57.23-2.37-.3-4.62-1.51-6.19-3.55Z"/>
      <path class="cls-195" d="M18.05,7.38c-.78-1.02-1.33-2.14-1.63-3.31-.15-.58-.25-1.18-.29-1.77-.02-.3-.02-.6-.01-.89v.18h13.12v8.47h.26c-.55.27-1.13.48-1.71.64-1.17.31-2.38.38-3.56.23-2.36-.3-4.61-1.51-6.17-3.54Z"/>
      <path class="cls-154" d="M18.07,7.37c-.78-1.01-1.32-2.14-1.63-3.3-.15-.58-.25-1.17-.29-1.77-.02-.3-.02-.59-.01-.89v.18h13.09v8.45h.25c-.55.27-1.13.48-1.71.64-1.16.31-2.37.38-3.55.23-2.35-.3-4.59-1.5-6.15-3.53Z"/>
      <path class="cls-259" d="M18.1,7.35c-.78-1.01-1.32-2.13-1.62-3.29-.15-.58-.25-1.17-.28-1.76-.02-.3-.02-.59-.01-.89v.18h13.06v8.42h.23c-.55.27-1.12.48-1.7.63-1.16.31-2.36.38-3.53.23-2.35-.3-4.58-1.5-6.13-3.52Z"/>
      <path class="cls-259" d="M18.12,7.33c-.78-1.01-1.31-2.12-1.62-3.28-.15-.58-.25-1.17-.28-1.76-.02-.3-.02-.59-.01-.89v.18h13.03v8.39h.22c-.55.27-1.12.48-1.7.63-1.16.3-2.35.38-3.52.23-2.34-.3-4.56-1.49-6.11-3.51Z"/>
      <path class="cls-252" d="M18.14,7.31c-.77-1-1.31-2.12-1.61-3.27-.15-.58-.25-1.16-.28-1.75-.02-.29-.02-.59-.01-.88v.18h13v8.36h.21c-.55.27-1.11.48-1.69.63-1.15.3-2.35.38-3.51.23-2.33-.3-4.55-1.49-6.09-3.49Z"/>
      <path class="cls-95" d="M18.17,7.29c-.77-1-1.3-2.11-1.61-3.26-.15-.57-.24-1.16-.28-1.75-.02-.29-.02-.59-.01-.88v.18h12.97v8.34h.19c-.55.27-1.11.48-1.68.63-1.15.3-2.34.37-3.5.23-2.32-.3-4.53-1.48-6.07-3.48Z"/>
      <path class="cls-265" d="M18.19,7.27c-.77-1-1.3-2.1-1.6-3.25-.15-.57-.24-1.16-.28-1.74-.02-.29-.02-.58-.01-.88v.17h12.94v8.31h.18c-.54.27-1.11.47-1.68.63-1.15.3-2.33.37-3.49.22-2.31-.3-4.51-1.48-6.05-3.47Z"/>
      <path class="cls-265" d="M18.22,7.25c-.77-.99-1.3-2.09-1.6-3.24-.15-.57-.24-1.15-.28-1.73-.02-.29-.02-.58-.01-.87v.17h12.91v8.28h.17c-.54.27-1.1.47-1.67.62-1.14.3-2.32.37-3.48.22-2.31-.3-4.5-1.47-6.03-3.46Z"/>
      <path class="cls-251" d="M18.24,7.24c-.76-.99-1.29-2.09-1.59-3.23-.15-.57-.24-1.15-.28-1.73-.02-.29-.02-.58-.01-.87v.17h12.88v8.26h.15c-.54.26-1.1.47-1.67.62-1.14.3-2.32.37-3.46.22-2.3-.3-4.48-1.47-6.01-3.45Z"/>
      <path class="cls-40" d="M18.26,7.22c-.76-.99-1.29-2.08-1.59-3.21-.15-.57-.24-1.14-.28-1.72-.02-.29-.02-.58-.01-.87v.17h12.85v8.23h.14c-.54.26-1.1.47-1.66.62-1.13.3-2.31.37-3.45.22-2.29-.29-4.47-1.46-5.99-3.44Z"/>
      <path class="cls-79" d="M18.29,7.2c-.76-.98-1.28-2.07-1.58-3.2-.15-.57-.24-1.14-.28-1.72-.02-.29-.02-.58-.01-.86v.17h12.82v8.2h.13c-.54.26-1.09.47-1.66.62-1.13.3-2.3.37-3.44.22-2.28-.29-4.45-1.46-5.97-3.42Z"/>
      <path class="cls-79" d="M18.31,7.18c-.76-.98-1.28-2.07-1.57-3.19-.15-.56-.24-1.14-.28-1.71-.02-.29-.02-.57-.01-.86v.17h12.78v8.17h.11c-.53.26-1.09.47-1.65.61-1.13.3-2.29.37-3.43.22-2.28-.29-4.44-1.45-5.95-3.41Z"/>
      <path class="cls-280" d="M18.34,7.16c-.75-.98-1.27-2.06-1.57-3.18-.15-.56-.24-1.13-.28-1.7-.02-.29-.02-.57-.01-.86v.17h12.75v8.15h.1c-.53.26-1.08.47-1.65.61-1.12.3-2.28.37-3.42.22-2.27-.29-4.42-1.45-5.93-3.4Z"/>
      <path class="cls-213" d="M18.36,7.14c-.75-.97-1.27-2.05-1.56-3.17-.15-.56-.24-1.13-.27-1.7-.02-.29-.02-.57-.01-.86v.17h12.72v8.12h.09c-.53.26-1.08.46-1.64.61-1.12.29-2.28.36-3.41.22-2.26-.29-4.41-1.44-5.91-3.39Z"/>
      <path class="cls-77" d="M18.38,7.12c-.75-.97-1.27-2.05-1.56-3.16-.15-.56-.24-1.12-.27-1.69-.02-.28-.02-.57-.01-.85v.17h12.69v8.09h.07c-.53.26-1.08.46-1.63.61-1.11.29-2.27.36-3.39.22-2.25-.29-4.39-1.44-5.89-3.38Z"/>
      <path class="cls-77" d="M18.41,7.11c-.75-.97-1.26-2.04-1.55-3.15-.15-.56-.24-1.12-.27-1.69-.02-.28-.02-.57-.01-.85v.17h12.66v8.06h.06c-.53.26-1.07.46-1.63.61-1.11.29-2.26.36-3.38.22-2.24-.29-4.38-1.43-5.87-3.37Z"/>
      <path class="cls-22" d="M18.43,7.09c-.74-.96-1.26-2.03-1.55-3.14-.15-.55-.24-1.12-.27-1.68-.02-.28-.02-.57-.01-.85v.16h12.63v8.04h.05c-.53.26-1.07.46-1.62.6-1.11.29-2.25.36-3.37.22-2.24-.29-4.36-1.43-5.85-3.36Z"/>
      <path class="cls-235" d="M18.46,7.07c-.74-.96-1.25-2.02-1.54-3.13-.15-.55-.24-1.11-.27-1.68-.02-.28-.02-.56-.01-.84v.16h12.6v8.01h.03c-.52.26-1.07.46-1.62.6-1.1.29-2.25.36-3.36.22-2.23-.29-4.35-1.42-5.83-3.34Z"/>
      <path class="cls-121" d="M18.48,7.05c-.74-.96-1.25-2.02-1.54-3.12-.14-.55-.23-1.11-.27-1.67-.02-.28-.02-.56-.01-.84v.16h12.57v7.98h.02c-.52.26-1.06.46-1.61.6-1.1.29-2.24.36-3.35.22-2.22-.29-4.33-1.42-5.81-3.33Z"/>
      <path class="cls-282" d="M18.51,7.03c-.74-.95-1.24-2.01-1.53-3.11-.14-.55-.23-1.11-.27-1.66-.02-.28-.02-.56-.01-.84v.16h12.54v7.95h0c-.52.25-1.06.45-1.61.6-1.1.29-2.23.36-3.34.21-2.21-.28-4.32-1.41-5.79-3.32Z"/>
      <path class="cls-282" d="M18.53,7.01c-.73-.95-1.24-2-1.53-3.1-.14-.55-.23-1.1-.27-1.66-.02-.28-.02-.56-.01-.84v.16h12.51v7.73h.38c-.13.07-.26.14-.39.2-.52.25-1.05.45-1.6.6-1.09.29-2.22.36-3.32.21-2.21-.28-4.3-1.41-5.77-3.31Z"/>
      <path class="cls-25" d="M18.55,6.99c-.73-.95-1.24-2-1.52-3.08-.14-.54-.23-1.1-.27-1.65-.02-.28-.02-.56-.01-.83v.16h12.48v7.7h.36c-.13.07-.25.14-.38.2-.52.25-1.05.45-1.6.59-1.09.29-2.21.35-3.31.21-2.2-.28-4.29-1.4-5.75-3.3Z"/>
      <path class="cls-156" d="M18.58,6.97c-.73-.94-1.23-1.99-1.52-3.07-.14-.54-.23-1.09-.27-1.65-.02-.28-.02-.55-.01-.83v.16h12.45v7.67h.35c-.13.07-.25.14-.38.2-.51.25-1.05.45-1.59.59-1.08.29-2.21.35-3.3.21-2.19-.28-4.27-1.4-5.73-3.29Z"/>
      <path class="cls-229" d="M18.6,6.96c-.73-.94-1.23-1.98-1.51-3.06-.14-.54-.23-1.09-.27-1.64-.02-.28-.02-.55-.01-.83v.16h12.42v7.65h.33c-.13.07-.25.14-.38.2-.51.25-1.04.45-1.58.59-1.08.28-2.2.35-3.29.21-2.18-.28-4.26-1.39-5.71-3.27Z"/>
      <path class="cls-91" d="M18.63,6.94c-.72-.94-1.22-1.98-1.51-3.05-.14-.54-.23-1.09-.26-1.64-.02-.27-.02-.55-.01-.82v.16h12.39v7.62h.32c-.13.07-.25.14-.38.2-.51.25-1.04.45-1.58.59-1.08.28-2.19.35-3.28.21-2.18-.28-4.24-1.39-5.69-3.26Z"/>
      <path class="cls-91" d="M18.65,6.92c-.72-.93-1.22-1.97-1.5-3.04-.14-.54-.23-1.08-.26-1.63-.02-.27-.02-.55-.01-.82v.16h12.36v7.59h.3c-.13.07-.25.14-.38.2-.51.25-1.04.44-1.57.59-1.07.28-2.18.35-3.27.21-2.17-.28-4.23-1.38-5.67-3.25Z"/>
      <path class="cls-66" d="M18.67,6.9c-.72-.93-1.21-1.96-1.49-3.03-.14-.53-.23-1.08-.26-1.62-.02-.27-.02-.55-.01-.82v.15h12.33v7.57h.29c-.12.07-.25.13-.38.2-.51.25-1.03.44-1.57.58-1.07.28-2.18.35-3.26.21-2.16-.28-4.21-1.38-5.65-3.24Z"/>
      <path class="cls-163" d="M18.7,6.88c-.72-.93-1.21-1.95-1.49-3.02-.14-.53-.23-1.07-.26-1.62-.02-.27-.02-.54-.01-.81v.15h12.3v7.54h.27c-.12.07-.25.13-.38.2-.51.25-1.03.44-1.56.58-1.07.28-2.17.35-3.24.21-2.15-.28-4.2-1.37-5.63-3.23Z"/>
      <path class="cls-5" d="M18.72,6.86c-.71-.92-1.2-1.95-1.48-3.01-.14-.53-.23-1.07-.26-1.61-.02-.27-.02-.54-.01-.81v.15h12.27v7.3h.63c-.24.15-.49.29-.74.41-.5.25-1.03.44-1.56.58-1.06.28-2.16.35-3.23.21-2.14-.28-4.18-1.37-5.61-3.22Z"/>
      <path class="cls-263" d="M18.75,6.84c-.71-.92-1.2-1.94-1.48-3-.14-.53-.23-1.07-.26-1.61-.02-.27-.02-.54-.01-.81v.15h12.24v7.27h.61c-.24.15-.49.29-.74.41-.5.25-1.02.44-1.55.58-1.06.28-2.15.34-3.22.21-2.14-.27-4.17-1.36-5.59-3.2Z"/>
      <path class="cls-47" d="M18.77,6.83c-.71-.92-1.2-1.93-1.47-2.99-.14-.53-.22-1.06-.26-1.6-.02-.27-.02-.54-.01-.81v.15h12.21v7.25h.6c-.24.15-.49.29-.74.41-.5.25-1.02.44-1.54.58-1.05.28-2.14.34-3.21.21-2.13-.27-4.15-1.36-5.57-3.19Z"/>
      <path class="cls-206" d="M18.79,6.81c-.71-.91-1.19-1.93-1.47-2.98-.14-.52-.22-1.06-.26-1.59-.02-.27-.02-.54-.01-.8v.15h12.18v7.22h.58c-.24.15-.48.28-.73.41-.5.24-1.01.43-1.54.57-1.05.28-2.14.34-3.2.21-2.12-.27-4.14-1.35-5.55-3.18Z"/>
      <path class="cls-215" d="M18.82,6.79c-.7-.91-1.19-1.92-1.46-2.97-.14-.52-.22-1.06-.26-1.59-.02-.27-.02-.53-.01-.8v.15h12.15v7.19h.56c-.24.15-.48.28-.73.41-.5.24-1.01.43-1.53.57-1.05.28-2.13.34-3.19.2-2.11-.27-4.12-1.35-5.53-3.17Z"/>
      <path class="cls-215" d="M18.84,6.77c-.7-.91-1.18-1.91-1.46-2.95-.14-.52-.22-1.05-.26-1.58-.02-.27-.02-.53-.01-.8v.15h12.12v7.17h.55c-.24.15-.48.28-.73.4-.49.24-1.01.43-1.53.57-1.04.27-2.12.34-3.17.2-2.11-.27-4.11-1.35-5.51-3.16Z"/>
      <path class="cls-172" d="M18.87,6.75c-.7-.9-1.18-1.91-1.45-2.94-.14-.52-.22-1.05-.25-1.58-.02-.26-.02-.53-.01-.79v.15h12.08v7.14h.53c-.24.15-.48.28-.73.4-.49.24-1,.43-1.52.57-1.04.27-2.11.34-3.16.2-2.1-.27-4.09-1.34-5.49-3.15Z"/>
      <path class="cls-237" d="M18.89,6.73c-.69-.9-1.17-1.9-1.45-2.93-.14-.52-.22-1.04-.25-1.57-.02-.26-.02-.53-.01-.79v.15h12.05v7.12h.52c-.24.15-.48.28-.72.4-.49.24-1,.43-1.52.56-1.03.27-2.11.34-3.15.2-2.09-.27-4.08-1.34-5.47-3.14Z"/>
      <path class="cls-237" d="M18.92,6.71c-.69-.9-1.17-1.89-1.44-2.92-.14-.52-.22-1.04-.25-1.57-.02-.26-.02-.53-.01-.79v.15h12.02v7.09h.5c-.24.15-.48.28-.72.4-.49.24-1,.43-1.51.56-1.03.27-2.1.34-3.14.2-2.08-.27-4.06-1.33-5.45-3.12Z"/>
      <path class="cls-139" d="M18.94,6.7c-.69-.89-1.17-1.88-1.44-2.91-.14-.51-.22-1.04-.25-1.56-.02-.26-.02-.52-.01-.79v.14h11.99v7.06h.48c-.23.15-.47.28-.72.4-.49.24-.99.43-1.51.56-1.03.27-2.09.33-3.13.2-2.07-.27-4.05-1.33-5.43-3.11Z"/>
      <path class="cls-12" d="M18.96,6.68c-.69-.89-1.16-1.88-1.43-2.9-.13-.51-.22-1.03-.25-1.55-.02-.26-.02-.52-.01-.78v.14h11.96v7.04h.47c-.23.15-.47.28-.72.4-.49.24-.99.42-1.5.56-1.02.27-2.08.33-3.12.2-2.07-.27-4.03-1.32-5.41-3.1Z"/>
      <path class="cls-188" d="M18.99,6.66c-.68-.89-1.16-1.87-1.43-2.89-.13-.51-.22-1.03-.25-1.55-.02-.26-.02-.52-.01-.78v.14h11.93v7.01h.45c-.23.14-.47.28-.71.39-.48.24-.98.42-1.49.56-1.02.27-2.07.33-3.1.2-2.06-.26-4.02-1.32-5.39-3.09Z"/>
      <path class="cls-212" d="M19.01,6.64c-.68-.88-1.15-1.86-1.42-2.88-.13-.51-.22-1.02-.25-1.54-.02-.26-.02-.52-.01-.78v.14h11.9v6.99h.44c-.23.14-.47.28-.71.39-.48.24-.98.42-1.49.55-1.02.27-2.07.33-3.09.2-2.05-.26-4-1.31-5.37-3.08Z"/>
      <path class="cls-50" d="M19.04,6.62c-.68-.88-1.15-1.86-1.41-2.87-.13-.51-.22-1.02-.25-1.54-.02-.26-.02-.52-.01-.77v.14h11.87v6.96h.42c-.23.14-.47.27-.71.39-.48.24-.98.42-1.48.55-1.01.27-2.06.33-3.08.2-2.04-.26-3.99-1.31-5.35-3.07Z"/>
      <path class="cls-50" d="M19.06,6.6c-.68-.88-1.14-1.85-1.41-2.86-.13-.5-.21-1.02-.25-1.53-.02-.26-.02-.51-.01-.77v.14h11.84v6.93h.4c-.23.14-.47.27-.7.39-.48.23-.97.42-1.48.55-1.01.27-2.05.33-3.07.2-2.04-.26-3.97-1.3-5.33-3.05Z"/>
      <path class="cls-18" d="M19.08,6.58c-.67-.87-1.14-1.84-1.4-2.85-.13-.5-.21-1.01-.25-1.52-.02-.26-.02-.51-.01-.77v.14h11.81v6.91h.39c-.23.14-.46.27-.7.39-.48.23-.97.42-1.47.55-1,.26-2.04.33-3.06.2-2.03-.26-3.96-1.3-5.31-3.04Z"/>
      <path class="cls-35" d="M19.11,6.57c-.67-.87-1.14-1.83-1.4-2.83-.13-.5-.21-1.01-.25-1.52-.02-.26-.02-.51-.01-.77v.14h11.78v6.88h.37c-.23.14-.46.27-.7.39-.47.23-.97.41-1.47.55-1,.26-2.04.33-3.05.2-2.02-.26-3.94-1.29-5.29-3.03Z"/>
      <path class="cls-72" d="M19.13,6.55c-.67-.87-1.13-1.83-1.39-2.82-.13-.5-.21-1-.24-1.51-.02-.25-.02-.51-.01-.76v.14h11.75v6.86h.35c-.23.14-.46.27-.7.39-.47.23-.96.41-1.46.54-1,.26-2.03.32-3.03.2-2.01-.26-3.93-1.29-5.26-3.02Z"/>
      <path class="cls-134" d="M19.16,6.53c-.67-.86-1.13-1.82-1.39-2.81-.13-.5-.21-1-.24-1.51-.02-.25-.02-.51-.01-.76v.14h11.72v6.83h.34c-.23.14-.46.27-.69.38-.47.23-.96.41-1.46.54-.99.26-2.02.32-3.02.19-2.01-.26-3.91-1.28-5.24-3.01Z"/>
      <path class="cls-223" d="M19.18,6.51c-.66-.86-1.12-1.81-1.38-2.8-.13-.49-.21-1-.24-1.5-.02-.25-.02-.5-.01-.76v.13h11.69v6.81h.32c-.23.14-.46.27-.69.38-.47.23-.96.41-1.45.54-.99.26-2.01.32-3.01.19-2-.26-3.9-1.28-5.22-3Z"/>
      <path class="cls-257" d="M19.2,6.49c-.66-.86-1.12-1.81-1.38-2.79-.13-.49-.21-.99-.24-1.5-.02-.25-.02-.5-.01-.75v.13h11.66v6.78h.31c-.22.14-.45.27-.69.38-.47.23-.95.41-1.44.54-.98.26-2,.32-3,.19-1.99-.26-3.88-1.27-5.2-2.98Z"/>
      <path class="cls-58" d="M19.23,6.47c-.66-.85-1.11-1.8-1.37-2.78-.13-.49-.21-.99-.24-1.49-.02-.25-.02-.5-.01-.75v.13h11.63v6.75h.29c-.22.14-.45.27-.69.38-.47.23-.95.41-1.44.54-.98.26-2,.32-2.99.19-1.98-.26-3.87-1.27-5.18-2.97Z"/>
      <path class="cls-218" d="M19.25,6.45c-.66-.85-1.11-1.79-1.37-2.77-.13-.49-.21-.99-.24-1.48-.02-.25-.02-.5-.01-.75v.13h11.6v6.73h.27c-.22.14-.45.26-.68.38-.46.23-.94.4-1.43.53-.98.26-1.99.32-2.98.19-1.97-.25-3.85-1.26-5.16-2.96Z"/>
      <path class="cls-283" d="M19.28,6.44c-.65-.85-1.1-1.79-1.36-2.76-.13-.49-.21-.98-.24-1.48-.02-.25-.02-.5-.01-.74v.13h11.57v6.7h.26c-.22.14-.45.26-.68.38-.46.23-.94.4-1.43.53-.97.26-1.98.32-2.96.19-1.97-.25-3.84-1.26-5.14-2.95Z"/>
      <path class="cls-271" d="M19.3,6.42c-.65-.84-1.1-1.78-1.36-2.75-.13-.48-.21-.98-.24-1.47-.02-.25-.02-.49-.01-.74v.13h11.54v6.68h.24c-.22.14-.45.26-.68.38-.46.23-.94.4-1.42.53-.97.26-1.97.32-2.95.19-1.96-.25-3.82-1.25-5.12-2.94Z"/>
      <path class="cls-84" d="M19.32,6.4c-.65-.84-1.1-1.77-1.35-2.74-.13-.48-.21-.97-.24-1.47-.02-.25-.02-.49-.01-.74v.13h11.51v6.65h.23c-.22.14-.45.26-.68.37-.46.22-.93.4-1.42.53-.97.25-1.97.31-2.94.19-1.95-.25-3.81-1.25-5.1-2.93Z"/>
      <path class="cls-84" d="M19.35,6.38c-.65-.84-1.09-1.76-1.34-2.73-.13-.48-.2-.97-.24-1.46-.02-.25-.02-.49-.01-.74v.13h11.48v6.62h.21c-.22.14-.44.26-.67.37-.46.22-.93.4-1.41.53-.96.25-1.96.31-2.93.19-1.94-.25-3.79-1.24-5.08-2.91Z"/>
      <path class="cls-56" d="M19.37,6.36c-.64-.83-1.09-1.76-1.34-2.72-.13-.48-.2-.97-.24-1.45-.02-.24-.02-.49-.01-.73v.13h11.45v6.6h.19c-.22.14-.44.26-.67.37-.45.22-.93.4-1.4.52-.96.25-1.95.31-2.92.19-1.94-.25-3.78-1.24-5.06-2.9Z"/>
      <path class="cls-106" d="M19.4,6.34c-.64-.83-1.08-1.75-1.33-2.7-.13-.48-.2-.96-.23-1.45-.02-.24-.02-.49-.01-.73v.13h11.42v6.57h.18c-.22.14-.44.26-.67.37-.45.22-.92.4-1.4.52-.95.25-1.94.31-2.91.19-1.93-.25-3.76-1.23-5.04-2.89Z"/>
      <path class="cls-171" d="M19.42,6.32c-.64-.83-1.08-1.74-1.33-2.69-.13-.48-.2-.96-.23-1.44-.02-.24-.02-.48-.01-.73v.12h11.38v6.55h.16c-.22.13-.44.26-.66.37-.45.22-.92.39-1.39.52-.95.25-1.93.31-2.89.19-1.92-.25-3.75-1.23-5.02-2.88Z"/>
      <path class="cls-105" d="M19.45,6.3c-.64-.82-1.07-1.74-1.32-2.68-.12-.47-.2-.95-.23-1.44-.02-.24-.02-.48-.01-.72v.12h11.35v6.52h.15c-.22.13-.44.26-.66.37-.45.22-.91.39-1.39.52-.95.25-1.93.31-2.88.19-1.91-.25-3.73-1.22-5-2.87Z"/>
      <path class="cls-88" d="M19.47,6.29c-.63-.82-1.07-1.73-1.32-2.67-.12-.47-.2-.95-.23-1.43-.02-.24-.02-.48-.01-.72v.12h11.32v6.49h.13c-.22.13-.44.26-.66.37-.45.22-.91.39-1.38.51-.94.25-1.92.31-2.87.18-1.9-.25-3.72-1.22-4.98-2.86Z"/>
      <path class="cls-170" d="M19.49,6.27c-.63-.82-1.07-1.72-1.31-2.66-.12-.47-.2-.95-.23-1.43-.02-.24-.02-.48-.01-.72v.12h11.29v6.47h.11c-.21.13-.43.25-.66.36-.45.22-.91.39-1.38.51-.94.25-1.91.31-2.86.18-1.9-.24-3.7-1.21-4.96-2.85Z"/>
      <path class="cls-189" d="M19.52,6.25c-.63-.81-1.06-1.72-1.31-2.65-.12-.47-.2-.94-.23-1.42-.02-.24-.02-.48-.01-.72v.12h11.26v6.44h.1c-.21.13-.43.25-.65.36-.44.22-.9.39-1.37.51-.93.25-1.9.3-2.85.18-1.89-.24-3.69-1.21-4.94-2.83Z"/>
      <path class="cls-189" d="M19.54,6.23c-.63-.81-1.06-1.71-1.3-2.64-.12-.47-.2-.94-.23-1.41-.02-.24-.02-.48-.01-.71v.12h11.23v6.42h.08c-.21.13-.43.25-.65.36-.44.22-.9.39-1.37.51-.93.25-1.89.3-2.84.18-1.88-.24-3.67-1.2-4.92-2.82Z"/>
      <path class="cls-57" d="M19.57,6.21c-.62-.81-1.05-1.7-1.3-2.63-.12-.46-.2-.94-.23-1.41-.01-.24-.02-.47-.01-.71v.12h11.2v6.39h.07c-.21.13-.43.25-.65.36-.44.22-.9.38-1.36.51-.93.24-1.89.3-2.82.18-1.87-.24-3.66-1.2-4.9-2.81Z"/>
      <path class="cls-118" d="M19.59,6.19c-.62-.8-1.05-1.69-1.29-2.62-.12-.46-.2-.93-.23-1.4-.01-.24-.02-.47-.01-.71v.12h11.17v6.37h.05c-.21.13-.43.25-.65.36-.44.21-.89.38-1.35.5-.92.24-1.88.3-2.81.18-1.87-.24-3.64-1.19-4.88-2.8Z"/>
      <path class="cls-216" d="M19.61,6.17c-.62-.8-1.04-1.69-1.29-2.61-.12-.46-.2-.93-.23-1.4-.01-.23-.02-.47-.01-.7v.12h11.14v6.34h.03c-.21.13-.42.25-.64.36-.44.21-.89.38-1.35.5-.92.24-1.87.3-2.8.18-1.86-.24-3.63-1.19-4.86-2.79Z"/>
      <path class="cls-92" d="M19.64,6.16c-.62-.8-1.04-1.68-1.28-2.6-.12-.46-.2-.92-.22-1.39-.01-.23-.02-.47-.01-.7v.12h11.11v6.31h.02c-.21.13-.42.25-.64.35-.44.21-.88.38-1.34.5-.92.24-1.86.3-2.79.18-1.85-.24-3.61-1.18-4.84-2.78Z"/>
      <path class="cls-240" d="M19.66,6.14c-.61-.79-1.04-1.67-1.28-2.59-.12-.46-.19-.92-.22-1.39-.01-.23-.02-.47-.01-.7v.12h11.08v5.86h.61c-3.17,2.45-7.73,1.86-10.18-1.31Z"/>
      <path class="cls-6" d="M19.69,6.12c-.61-.79-1.03-1.67-1.27-2.57-.12-.45-.19-.92-.22-1.38-.01-.23-.02-.46-.01-.69v.11h11.05v5.84h.59c-3.16,2.44-7.7,1.86-10.14-1.3Z"/>
      <path class="cls-6" d="M19.71,6.1c-.61-.79-1.03-1.66-1.26-2.56-.12-.45-.19-.91-.22-1.37-.01-.23-.02-.46-.01-.69v.11h11.02v5.82h.58c-3.15,2.43-7.67,1.85-10.1-1.3Z"/>
      <path class="cls-10" d="M19.73,6.08c-.6-.78-1.02-1.65-1.26-2.55-.12-.45-.19-.91-.22-1.37-.01-.23-.02-.46-.01-.69v.11h10.99v5.79h.56c-3.13,2.42-7.64,1.84-10.06-1.29Z"/>
      <path class="cls-3" d="M19.76,6.06c-.6-.78-1.02-1.65-1.25-2.54-.12-.45-.19-.9-.22-1.36-.01-.23-.02-.46-.01-.69v.11h10.96v5.77h.54c-3.12,2.41-7.6,1.83-10.01-1.29Z"/>
      <path class="cls-194" d="M19.78,6.04c-.6-.78-1.01-1.64-1.25-2.53-.12-.45-.19-.9-.22-1.36-.01-.23-.02-.46-.01-.68v.11h10.93v5.74h.52c-3.11,2.4-7.57,1.82-9.97-1.28Z"/>
      <path class="cls-224" d="M19.81,6.03c-.6-.77-1.01-1.63-1.24-2.52-.12-.44-.19-.9-.22-1.35-.01-.23-.02-.45-.01-.68v.11h10.9v5.72h.5c-3.09,2.39-7.54,1.82-9.93-1.28Z"/>
      <path class="cls-228" d="M19.83,6.01c-.59-.77-1-1.62-1.24-2.51-.12-.44-.19-.89-.22-1.34-.01-.23-.02-.45-.01-.68v.11h10.87v5.69h.48c-3.08,2.38-7.51,1.81-9.88-1.27Z"/>
      <path class="cls-11" d="M19.86,5.99c-.59-.77-1-1.62-1.23-2.5-.12-.44-.19-.89-.22-1.34-.01-.22-.02-.45-.01-.67v.11h10.84v5.67h.46c-3.07,2.37-7.47,1.8-9.84-1.27Z"/>
      <path class="cls-11" d="M19.88,5.97c-.59-.76-1-1.61-1.23-2.49-.12-.44-.19-.89-.22-1.33-.01-.22-.02-.45-.01-.67v.11h10.81v5.65h.44c-3.05,2.36-7.44,1.79-9.8-1.26Z"/>
      <path class="cls-26" d="M19.9,5.95c-.59-.76-.99-1.6-1.22-2.48-.11-.44-.19-.88-.21-1.33-.01-.22-.02-.45-.01-.67v.11h10.78v5.62h.43c-3.04,2.35-7.41,1.79-9.76-1.26Z"/>
      <path class="cls-64" d="M19.93,5.93c-.58-.76-.99-1.6-1.22-2.47-.11-.43-.19-.88-.21-1.32-.01-.22-.02-.44-.01-.67v.1h10.75v5.6h.41c-3.03,2.34-7.38,1.78-9.71-1.25Z"/>
      <path class="cls-274" d="M19.95,5.91c-.58-.75-.98-1.59-1.21-2.46-.11-.43-.18-.87-.21-1.32-.01-.22-.02-.44-.01-.66v.1h10.72v5.57h.39c-3.01,2.33-7.34,1.77-9.67-1.24Z"/>
      <path class="cls-207" d="M19.98,5.9c-.58-.75-.98-1.58-1.21-2.44-.11-.43-.18-.87-.21-1.31-.01-.22-.02-.44-.01-.66v.1h10.69v5.55h.37c-3,2.32-7.31,1.76-9.63-1.24Z"/>
      <path class="cls-165" d="M20,5.88c-.58-.75-.97-1.58-1.2-2.43-.11-.43-.18-.87-.21-1.3-.01-.22-.02-.44-.01-.66v.1h10.65v5.53h.35c-2.99,2.31-7.28,1.75-9.59-1.23Z"/>
      <path class="cls-183" d="M20.02,5.86c-.57-.74-.97-1.57-1.2-2.42-.11-.43-.18-.86-.21-1.3-.01-.22-.02-.44-.01-.65v.1h10.62v5.5h.33c-2.97,2.3-7.25,1.75-9.54-1.23Z"/>
      <path class="cls-49" d="M20.05,5.84c-.57-.74-.97-1.56-1.19-2.41-.11-.43-.18-.86-.21-1.29-.01-.22-.02-.43,0-.65v.1h10.59v5.48h.31c-2.96,2.29-7.21,1.74-9.5-1.22Z"/>
      <path class="cls-82" d="M20.07,5.82c-.57-.74-.96-1.55-1.18-2.4-.11-.42-.18-.85-.21-1.29-.01-.22-.02-.43,0-.65v.1h10.56v5.45h.3c-2.95,2.28-7.18,1.73-9.46-1.22Z"/>
      <path class="cls-186" d="M20.1,5.8c-.57-.73-.96-1.55-1.18-2.39-.11-.42-.18-.85-.21-1.28-.01-.22-.02-.43,0-.65v.1h10.53v5.43h.28c-2.93,2.27-7.15,1.72-9.41-1.21Z"/>
      <path class="cls-186" d="M20.12,5.78c-.56-.73-.95-1.54-1.17-2.38-.11-.42-.18-.85-.21-1.27-.01-.21-.02-.43,0-.64v.1h10.5v5.41h.26c-2.92,2.25-7.12,1.72-9.37-1.21Z"/>
      <path class="cls-19" d="M20.14,5.77c-.56-.73-.95-1.53-1.17-2.37-.11-.42-.18-.84-.2-1.27-.01-.21-.02-.43,0-.64v.1h10.47v5.38h.24c-2.91,2.24-7.08,1.71-9.33-1.2Z"/>
      <path class="cls-214" d="M20.17,5.75c-.56-.72-.94-1.53-1.16-2.36-.11-.42-.18-.84-.2-1.26-.01-.21-.02-.42,0-.64v.09h10.44v5.36h.22c-2.89,2.23-7.05,1.7-9.29-1.19Z"/>
      <path class="cls-256" d="M20.19,5.73c-.56-.72-.94-1.52-1.16-2.35-.11-.41-.18-.84-.2-1.26-.01-.21-.02-.42,0-.63v.09h10.41v5.33h.2c-2.88,2.22-7.02,1.69-9.24-1.19Z"/>
      <path class="cls-173" d="M20.22,5.71c-.55-.72-.94-1.51-1.15-2.34-.11-.41-.18-.83-.2-1.25-.01-.21-.02-.42,0-.63v.09h10.38v5.31h.18c-2.87,2.21-6.99,1.68-9.2-1.18Z"/>
      <path class="cls-32" d="M20.24,5.69c-.55-.71-.93-1.51-1.15-2.33-.11-.41-.17-.83-.2-1.25-.01-.21-.02-.42,0-.63v.09h10.35v5.29h.17c-2.85,2.2-6.95,1.68-9.16-1.18Z"/>
      <path class="cls-175" d="M20.26,5.67c-.55-.71-.93-1.5-1.14-2.31-.11-.41-.17-.82-.2-1.24-.01-.21-.02-.42,0-.62v.09h10.32v5.26h.15c-2.84,2.19-6.92,1.67-9.12-1.17Z"/>
      <path class="cls-250" d="M20.29,5.65c-.55-.71-.92-1.49-1.14-2.3-.11-.41-.17-.82-.2-1.23-.01-.21-.02-.41,0-.62v.09h10.29v5.24h.13c-2.83,2.18-6.89,1.66-9.07-1.17Z"/>
      <path class="cls-250" d="M20.31,5.64c-.54-.7-.92-1.48-1.13-2.29-.11-.4-.17-.82-.2-1.23-.01-.21-.02-.41,0-.62v.09h10.26v5.21h.11c-2.81,2.17-6.86,1.65-9.03-1.16Z"/>
      <path class="cls-73" d="M20.34,5.62c-.54-.7-.91-1.48-1.13-2.28-.11-.4-.17-.81-.2-1.22-.01-.21-.02-.41,0-.62v.09h10.23v5.19h.09c-2.8,2.16-6.82,1.64-8.99-1.16Z"/>
      <path class="cls-278" d="M20.36,5.6c-.54-.7-.91-1.47-1.12-2.27-.11-.4-.17-.81-.2-1.22-.01-.2-.02-.41,0-.61v.09h10.2v5.16h.07c-2.79,2.15-6.79,1.64-8.94-1.15Z"/>
      <path class="cls-123" d="M20.39,5.58c-.54-.69-.91-1.46-1.11-2.26-.1-.4-.17-.8-.2-1.21-.01-.2-.02-.41,0-.61v.09h10.17v5.14h.05c-2.77,2.14-6.76,1.63-8.9-1.15Z"/>
      <path class="cls-8" d="M20.41,5.56c-.53-.69-.9-1.46-1.11-2.25-.1-.4-.17-.8-.19-1.21-.01-.2-.02-.4,0-.61v.08h10.14v5.12h.04c-2.76,2.13-6.73,1.62-8.86-1.14Z"/>
      <path class="cls-180" d="M20.43,5.54c-.53-.69-.9-1.45-1.1-2.24-.1-.39-.17-.8-.19-1.2-.01-.2-.02-.4,0-.6v.08h10.11v5.09h.02c-2.75,2.12-6.7,1.61-8.82-1.13Z"/>
      <path class="cls-231" d="M20.46,5.52c-.53-.68-.89-1.44-1.1-2.23-.1-.39-.17-.79-.19-1.19-.01-.2-.02-.4,0-.6v.08h10.08v4.65h.48c-.15.15-.32.28-.49.42-2.73,2.11-6.66,1.61-8.77-1.13Z"/>
      <path class="cls-153" d="M20.48,5.5c-.53-.68-.89-1.43-1.09-2.22-.1-.39-.17-.79-.19-1.19-.01-.2-.02-.4,0-.6v.08h10.05v4.63h.46c-.15.14-.31.28-.48.41-2.72,2.1-6.63,1.6-8.73-1.12Z"/>
      <path class="cls-36" d="M20.51,5.49c-.52-.68-.88-1.43-1.09-2.21-.1-.39-.17-.78-.19-1.18-.01-.2-.02-.4,0-.6v.08h10.02v4.61h.44c-.15.14-.31.28-.48.41-2.71,2.09-6.6,1.59-8.69-1.12Z"/>
      <path class="cls-187" d="M20.53,5.47c-.52-.67-.88-1.42-1.08-2.2-.1-.39-.16-.78-.19-1.18-.01-.2-.02-.4,0-.59v.08h9.99v4.59h.42c-.15.14-.31.28-.48.41-2.69,2.08-6.57,1.58-8.65-1.11Z"/>
      <path class="cls-177" d="M20.55,5.45c-.52-.67-.87-1.41-1.08-2.18-.1-.39-.16-.78-.19-1.17-.01-.2-.02-.39,0-.59v.08h9.95v4.56h.4c-.15.14-.31.28-.48.41-2.68,2.07-6.53,1.57-8.6-1.11Z"/>
      <path class="cls-177" d="M20.58,5.43c-.51-.67-.87-1.41-1.07-2.17-.1-.38-.16-.77-.19-1.16-.01-.2-.02-.39,0-.59v.08h9.92v4.54h.38c-.15.14-.31.28-.47.41-2.67,2.06-6.5,1.57-8.56-1.1Z"/>
      <path class="cls-181" d="M20.6,5.41c-.51-.66-.87-1.4-1.07-2.16-.1-.38-.16-.77-.19-1.16-.01-.19-.02-.39,0-.58v.08h9.89v4.52h.36c-.15.14-.31.28-.47.4-2.65,2.05-6.47,1.56-8.52-1.1Z"/>
      <path class="cls-30" d="M20.63,5.39c-.51-.66-.86-1.39-1.06-2.15-.1-.38-.16-.77-.19-1.15-.01-.19-.02-.39,0-.58v.08h9.86v4.5h.34c-.15.14-.3.27-.47.4-2.64,2.04-6.44,1.55-8.47-1.09Z"/>
      <path class="cls-178" d="M20.65,5.37c-.51-.66-.86-1.39-1.06-2.14-.1-.38-.16-.76-.19-1.15-.01-.19-.02-.39,0-.58v.08h9.83v4.48h.32c-.15.14-.3.27-.47.4-2.63,2.03-6.4,1.54-8.43-1.08Z"/>
      <path class="cls-200" d="M20.67,5.36c-.5-.65-.85-1.38-1.05-2.13-.1-.38-.16-.76-.18-1.14-.01-.19-.02-.38,0-.57v.07h9.8v4.45h.3c-.15.14-.3.27-.47.4-2.61,2.02-6.37,1.54-8.39-1.08Z"/>
      <path class="cls-150" d="M20.7,5.34c-.5-.65-.85-1.37-1.05-2.12-.1-.37-.16-.75-.18-1.14-.01-.19-.01-.38,0-.57v.07h9.77v4.43h.28c-.15.14-.3.27-.46.4-2.6,2.01-6.34,1.53-8.35-1.07Z"/>
      <path class="cls-225" d="M20.72,5.32c-.5-.65-.84-1.36-1.04-2.11-.1-.37-.16-.75-.18-1.13-.01-.19-.01-.38,0-.57v.07h9.74v4.41h.25c-.15.14-.3.27-.46.39-2.59,2-6.31,1.52-8.3-1.07Z"/>
      <path class="cls-102" d="M20.75,5.3c-.5-.64-.84-1.36-1.03-2.1-.1-.37-.16-.75-.18-1.12-.01-.19-.01-.38,0-.57v.07h9.71v4.39h.23c-.14.14-.3.27-.46.39-2.57,1.99-6.27,1.51-8.26-1.06Z"/>
      <path class="cls-97" d="M20.77,5.28c-.49-.64-.84-1.35-1.03-2.09-.1-.37-.16-.74-.18-1.12-.01-.19-.01-.38,0-.56v.07h9.68v3.94h.62c-.25.29-.54.57-.86.82-2.56,1.98-6.24,1.5-8.22-1.06Z"/>
      <path class="cls-111" d="M20.79,5.26c-.98-1.27-1.36-2.83-1.17-4.31v.63h9.61v3.92h.6c-.25.29-.54.57-.86.81-2.55,1.97-6.21,1.5-8.18-1.05Z"/>
      <path class="cls-185" d="M20.82,5.24c-.98-1.27-1.35-2.81-1.16-4.28v.62h9.58v3.9h.57c-.25.29-.54.56-.85.81-2.53,1.96-6.18,1.49-8.13-1.05Z"/>
      <path class="cls-185" d="M20.84,5.23c-.97-1.26-1.34-2.8-1.16-4.26v.62h9.55v3.88h.55c-.25.29-.53.56-.85.8-2.52,1.95-6.14,1.48-8.09-1.04Z"/>
      <path class="cls-208" d="M20.87,5.21c-.97-1.25-1.34-2.78-1.15-4.24v.62h9.51v3.86h.53c-.25.29-.53.56-.84.8-2.51,1.94-6.11,1.47-8.05-1.04Z"/>
      <path class="cls-68" d="M20.89,5.19c-.96-1.25-1.33-2.77-1.14-4.22v.61h9.48v3.84h.5c-.25.29-.53.55-.84.79-2.49,1.93-6.08,1.46-8.01-1.03Z"/>
      <path class="cls-129" d="M20.92,5.17c-.96-1.24-1.32-2.75-1.14-4.19v.61h9.45v3.82h.48c-.25.29-.52.55-.84.79-2.48,1.92-6.05,1.46-7.96-1.02Z"/>
      <path class="cls-272" d="M20.94,5.15c-.95-1.23-1.32-2.74-1.13-4.17v.6h9.42v3.8h.46c-.24.28-.52.55-.83.79-2.47,1.91-6.01,1.45-7.92-1.02Z"/>
      <path class="cls-146" d="M20.96,5.13c-.95-1.23-1.31-2.72-1.12-4.15v.6h9.39v3.78h.43c-.24.28-.52.55-.83.78-2.46,1.9-5.98,1.44-7.88-1.01Z"/>
      <path class="cls-99" d="M20.99,5.11c-.94-1.22-1.3-2.71-1.12-4.13v.6h9.36v3.76h.41c-.24.28-.52.54-.82.78-2.44,1.89-5.95,1.43-7.83-1.01Z"/>
      <path class="cls-247" d="M21.01,5.1c-.94-1.21-1.29-2.69-1.11-4.1v.59h9.33v3.74h.39c-.24.28-.51.54-.82.77-2.43,1.87-5.92,1.43-7.79-1Z"/>
      <path class="cls-242" d="M21.04,5.08c-.93-1.21-1.29-2.68-1.11-4.08v.59h9.3v3.72h.36c-.24.28-.51.54-.81.77-2.42,1.86-5.88,1.42-7.75-1Z"/>
      <path class="cls-169" d="M21.06,5.06c-.93-1.2-1.28-2.66-1.1-4.06v.58h9.27v3.7h.34c-.24.28-.51.53-.81.76-2.4,1.85-5.85,1.41-7.71-.99Z"/>
      <path class="cls-125" d="M21.08,5.04c-.92-1.19-1.27-2.65-1.09-4.04v.58h9.24v3.68h.32c-.24.27-.51.53-.8.76-2.39,1.84-5.82,1.4-7.66-.99Z"/>
      <path class="cls-125" d="M21.11,5.02c-.92-1.19-1.27-2.63-1.09-4.01v.58h9.21v3.66h.3c-.24.27-.5.53-.8.76-2.38,1.83-5.79,1.39-7.62-.98Z"/>
      <path class="cls-2" d="M21.13,5c-.91-1.18-1.26-2.62-1.08-3.99v.57h9.18v3.64h.27c-.23.27-.5.52-.79.75-2.36,1.82-5.75,1.39-7.58-.98Z"/>
      <path class="cls-230" d="M21.16,4.98c-.91-1.17-1.25-2.6-1.08-3.97v.57h9.15v3.62h.25c-.23.27-.5.52-.79.75-2.35,1.81-5.72,1.38-7.54-.97Z"/>
      <path class="cls-109" d="M21.18,4.97c-.9-1.17-1.24-2.59-1.07-3.95v.56h9.12v3.6h.23c-.23.27-.49.52-.79.74-2.34,1.8-5.69,1.37-7.49-.96Z"/>
      <path class="cls-232" d="M21.2,4.95c-.9-1.16-1.24-2.58-1.06-3.92v.56h9.09v3.58h.2c-.23.27-.49.52-.78.74-2.32,1.79-5.66,1.36-7.45-.96Z"/>
      <path class="cls-93" d="M21.23,4.93c-.89-1.15-1.23-2.56-1.06-3.9v.56h9.06v3.56h.18c-.23.27-.49.51-.78.74-2.31,1.78-5.62,1.36-7.41-.95Z"/>
      <path class="cls-238" d="M21.25,4.91c-.89-1.15-1.22-2.55-1.05-3.88v.55h9.03v3.54h.16c-.23.26-.49.51-.77.73-2.3,1.77-5.59,1.35-7.36-.95Z"/>
      <path class="cls-46" d="M21.28,4.89c-.88-1.14-1.22-2.53-1.05-3.86v.55h9v3.52h.13c-.23.26-.48.51-.77.73-2.28,1.76-5.56,1.34-7.32-.94Z"/>
      <path class="cls-101" d="M21.3,4.87c-.88-1.13-1.21-2.52-1.04-3.83v.55h8.97v3.5h.11c-.23.26-.48.5-.76.72-2.27,1.75-5.53,1.33-7.28-.94Z"/>
      <path class="cls-241" d="M21.33,4.85c-.87-1.13-1.2-2.5-1.03-3.81v.54h8.94v3.48h.09c-.22.26-.48.5-.76.72-2.26,1.74-5.5,1.32-7.24-.93Z"/>
      <path class="cls-167" d="M21.35,4.84c-.87-1.12-1.19-2.49-1.03-3.79v.54h8.91v3.46h.06c-.22.26-.47.5-.75.71-2.24,1.73-5.46,1.32-7.19-.93Z"/>
      <path class="cls-192" d="M21.37,4.82c-.86-1.11-1.19-2.47-1.02-3.77v.53h8.88v2.62h.62c-.33.58-.77,1.1-1.33,1.53-2.23,1.72-5.43,1.31-7.15-.92Z"/>
      <path class="cls-13" d="M21.4,4.8c-.86-1.11-1.18-2.46-1.01-3.74v.53h8.85v2.61h.59c-.32.57-.76,1.09-1.32,1.52-2.22,1.71-5.4,1.3-7.11-.91Z"/>
      <path class="cls-13" d="M21.42,4.78c-.85-1.1-1.17-2.44-1.01-3.72v.53h8.82v2.59h.56c-.32.57-.76,1.09-1.31,1.51-2.2,1.7-5.37,1.29-7.07-.91Z"/>
      <path class="cls-44" d="M21.45,4.76c-.84-1.09-1.17-2.43-1-3.7v.52h8.79v2.58h.54c-.32.57-.76,1.08-1.3,1.5-2.19,1.69-5.33,1.29-7.02-.9Z"/>
      <path class="cls-267" d="M21.47,4.74c-.84-1.09-1.16-2.41-1-3.68v.52h8.76v2.56h.51c-.32.56-.75,1.07-1.29,1.49-2.18,1.68-5.3,1.28-6.98-.9Z"/>
      <path class="cls-131" d="M21.49,4.72c-.83-1.08-1.15-2.4-.99-3.65v.51h8.73v2.55h.48c-.32.56-.75,1.07-1.29,1.48-2.16,1.67-5.27,1.27-6.94-.89Z"/>
      <path class="cls-15" d="M21.52,4.7c-.83-1.07-1.14-2.38-.98-3.63v.51h8.7v2.53h.46c-.31.56-.74,1.06-1.28,1.47-2.15,1.66-5.24,1.26-6.89-.89Z"/>
      <path class="cls-158" d="M21.54,4.69c-.82-1.07-1.14-2.37-.98-3.61v.51h8.67v2.52h.43c-.31.55-.74,1.05-1.27,1.47-2.14,1.65-5.2,1.25-6.85-.88Z"/>
      <path class="cls-59" d="M21.57,4.67c-.82-1.06-1.13-2.35-.97-3.59v.5h8.64v2.5h.4c-.31.55-.73,1.05-1.26,1.46-2.12,1.64-5.17,1.25-6.81-.88Z"/>
      <path class="cls-75" d="M21.59,4.65c-.81-1.05-1.12-2.34-.97-3.56v.5h8.61v2.49h.38c-.31.55-.73,1.04-1.25,1.45-2.11,1.63-5.14,1.24-6.77-.87Z"/>
      <path class="cls-96" d="M21.61,4.63c-.81-1.05-1.12-2.32-.96-3.54v.49h8.58v2.47h.35c-.31.54-.72,1.03-1.25,1.44-2.1,1.62-5.11,1.23-6.72-.87Z"/>
      <path class="cls-4" d="M21.64,4.61c-.8-1.04-1.11-2.31-.95-3.52v.49h8.55v2.46h.33c-.3.54-.72,1.03-1.24,1.43-2.08,1.61-5.07,1.22-6.68-.86Z"/>
      <path class="cls-246" d="M21.66,4.59c-.8-1.03-1.1-2.29-.95-3.5v.49h8.52v2.44h.3c-.3.54-.71,1.02-1.23,1.42-2.07,1.6-5.04,1.21-6.64-.85Z"/>
      <path class="cls-201" d="M21.69,4.57c-.79-1.03-1.1-2.28-.94-3.47v.48h8.49v2.43h.27c-.3.53-.71,1.01-1.22,1.41-2.06,1.59-5.01,1.21-6.6-.85Z"/>
      <path class="cls-201" d="M21.71,4.56c-.79-1.02-1.09-2.27-.94-3.45v.48h8.46v2.41h.25c-.3.53-.7,1.01-1.22,1.4-2.04,1.58-4.98,1.2-6.55-.84Z"/>
      <path class="cls-14" d="M21.73,4.54c-.78-1.01-1.08-2.25-.93-3.43v.48h8.43v2.4h.22c-.3.53-.7,1-1.21,1.39-2.03,1.57-4.94,1.19-6.51-.84Z"/>
      <path class="cls-226" d="M21.76,4.52c-.78-1.01-1.07-2.24-.92-3.41v.47h8.4v2.38h.19c-.29.52-.7.99-1.2,1.38-2.02,1.56-4.91,1.18-6.47-.83Z"/>
      <path class="cls-17" d="M21.78,4.5c-.77-1-1.07-2.22-.92-3.38v.47h8.37v2.37h.17c-.29.52-.69.99-1.19,1.37-2,1.55-4.88,1.18-6.42-.83Z"/>
      <path class="cls-160" d="M21.81,4.48c-.77-.99-1.06-2.21-.91-3.36v.46h8.34v2.35h.14c-.29.51-.69.98-1.18,1.37-1.99,1.54-4.85,1.17-6.38-.82Z"/>
      <path class="cls-157" d="M21.83,4.46c-.76-.99-1.05-2.19-.91-3.34v.46h8.31v2.34h.11c-.29.51-.68.97-1.18,1.36-1.98,1.53-4.81,1.16-6.34-.82Z"/>
      <path class="cls-60" d="M21.86,4.44c-.76-.98-1.05-2.18-.9-3.32v.46h8.28v.69h.63c-.15,1.14-.73,2.22-1.71,2.98-1.96,1.52-4.78,1.15-6.3-.81Z"/>
      <path class="cls-143" d="M21.88,4.43c-.75-.97-1.04-2.16-.89-3.29v.45h8.25v.69h.6c-.15,1.13-.72,2.21-1.7,2.96-1.95,1.5-4.75,1.14-6.25-.8Z"/>
      <path class="cls-39" d="M21.9,4.41c-.75-.97-1.03-2.15-.89-3.27v.45h8.22v.68h.57c-.14,1.12-.72,2.19-1.69,2.94-1.94,1.49-4.72,1.14-6.21-.8Z"/>
      <path class="cls-113" d="M21.93,4.39c-.74-.96-1.02-2.13-.88-3.25v.44h8.19v.68h.54c-.14,1.12-.71,2.18-1.67,2.92-1.92,1.48-4.68,1.13-6.17-.79Z"/>
      <path class="cls-190" d="M21.95,4.37c-.74-.95-1.02-2.12-.87-3.23v.44h8.16v.67h.51c-.14,1.11-.71,2.16-1.66,2.9-1.91,1.47-4.65,1.12-6.13-.79Z"/>
      <path class="cls-193" d="M21.98,4.35c-.73-.95-1.01-2.1-.87-3.2v.44h8.13v.67h.48c-.14,1.1-.7,2.15-1.65,2.88-1.9,1.46-4.62,1.11-6.08-.78Z"/>
      <path class="cls-239" d="M22,4.33c-.73-.94-1-2.09-.86-3.18v.43h8.1v.67h.45c-.14,1.09-.7,2.13-1.64,2.86-1.88,1.45-4.59,1.11-6.04-.78Z"/>
      <path class="cls-209" d="M22.02,4.31c-.72-.93-1-2.07-.86-3.16v.43h8.07v.66h.42c-.14,1.09-.69,2.12-1.63,2.84-1.87,1.44-4.55,1.1-6-.77Z"/>
      <path class="cls-209" d="M22.05,4.3c-.72-.93-.99-2.06-.85-3.14v.42h8.04v.66h.39c-.14,1.08-.69,2.1-1.62,2.82-1.86,1.43-4.52,1.09-5.96-.77Z"/>
      <path class="cls-221" d="M22.07,4.28c-.71-.92-.98-2.04-.84-3.11v.42h8v.65h.36c-.14,1.07-.68,2.09-1.6,2.8-1.84,1.42-4.49,1.08-5.91-.76Z"/>
      <path class="cls-281" d="M22.1,4.26c-.71-.91-.97-2.03-.84-3.09v.42h7.97v.65h.33c-.14,1.06-.68,2.07-1.59,2.78-1.83,1.41-4.46,1.07-5.87-.76Z"/>
      <path class="cls-197" d="M22.12,4.24c-.7-.91-.97-2.01-.83-3.07v.41h7.94v.65h.3c-.14,1.05-.67,2.06-1.58,2.76-1.82,1.4-4.42,1.07-5.83-.75Z"/>
      <path class="cls-151" d="M22.14,4.22c-.7-.9-.96-2-.83-3.05v.41h7.91v.64h.27c-.13,1.05-.67,2.04-1.57,2.74-1.8,1.39-4.39,1.06-5.78-.74Z"/>
      <path class="cls-234" d="M22.17,4.2c-.69-.89-.95-1.98-.82-3.02v.41h7.88v.64h.24c-.13,1.04-.66,2.03-1.56,2.72-1.79,1.38-4.36,1.05-5.74-.74Z"/>
      <path class="cls-24" d="M22.19,4.18c-.69-.89-.95-1.97-.81-3v.4h7.85v.64h.21c-.13,1.03-.66,2.01-1.55,2.7-1.78,1.37-4.33,1.04-5.7-.73Z"/>
      <path class="cls-253" d="M22.22,4.17c-.68-.88-.94-1.96-.81-2.98v.4h7.82v.63h.18c-.13,1.02-.65,2-1.54,2.68-1.76,1.36-4.3,1.04-5.66-.73Z"/>
    </g>
    <path class="cls-176" d="M18.11,12.29l-.52-.37.51.36s0,0,.01.01Z"/>
    <path class="cls-211" d="M26.7,19.96c-.01.06-.04.13-.09.18l-2.66,2.67c-.06.06-.13.1-.21.12-.11.03-.23.02-.33-.03h0s-.04-.03-.06-.04l-1.01-.78c-.51-.39-1.03-.79-1.53-1.18-.27-.21-.3-.54-.07-.74.83-.7,1.67-1.42,2.54-2.16.02-.02.04-.04.09-.08.02-.02.04-.03.07-.04.03-.02.06-.03.1-.04.04-.02.09-.03.15-.04.27-.04.46.1.5.13.78.55,1.55,1.09,2.32,1.64h0l.05.04c.06.04.1.09.12.15,0,0,0,0,0,0,.03.06.04.13.02.19Z"/>
  </g>
</svg>